<svg width="151" height="89" viewBox="0 0 151 89" fill="none" xmlns="http://www.w3.org/2000/svg">
<path d="M57.336 44.7C57.3993 44.7 57.45 44.7253 57.488 44.776C57.5387 44.814 57.564 44.8647 57.564 44.928V46.79C57.564 46.8533 57.5387 46.9103 57.488 46.961C57.45 46.999 57.3993 47.018 57.336 47.018H53.935C53.8717 47.018 53.84 47.0497 53.84 47.113V57.772C53.84 57.8353 53.8147 57.8923 53.764 57.943C53.726 57.981 53.6753 58 53.612 58H51.389C51.3257 58 51.2687 57.981 51.218 57.943C51.18 57.8923 51.161 57.8353 51.161 57.772V47.113C51.161 47.0497 51.1293 47.018 51.066 47.018H47.76C47.6967 47.018 47.6397 46.999 47.589 46.961C47.551 46.9103 47.532 46.8533 47.532 46.79V44.928C47.532 44.8647 47.551 44.814 47.589 44.776C47.6397 44.7253 47.6967 44.7 47.76 44.7H57.336ZM66.5693 58C66.4426 58 66.3539 57.943 66.3033 57.829L63.9283 52.566C63.9029 52.5153 63.8649 52.49 63.8143 52.49H62.0473C61.9839 52.49 61.9523 52.5217 61.9523 52.585V57.772C61.9523 57.8353 61.9269 57.8923 61.8763 57.943C61.8383 57.981 61.7876 58 61.7243 58H59.5013C59.4379 58 59.3809 57.981 59.3303 57.943C59.2923 57.8923 59.2733 57.8353 59.2733 57.772V44.928C59.2733 44.8647 59.2923 44.814 59.3303 44.776C59.3809 44.7253 59.4379 44.7 59.5013 44.7H64.9353C65.7459 44.7 66.4553 44.8647 67.0633 45.194C67.6839 45.5233 68.1589 45.992 68.4883 46.6C68.8303 47.208 69.0013 47.911 69.0013 48.709C69.0013 49.5703 68.7859 50.3113 68.3553 50.932C67.9246 51.54 67.3229 51.9707 66.5503 52.224C66.4869 52.2493 66.4679 52.2937 66.4933 52.357L69.0773 57.734C69.1026 57.7847 69.1153 57.8227 69.1153 57.848C69.1153 57.9493 69.0456 58 68.9063 58H66.5693ZM62.0473 46.999C61.9839 46.999 61.9523 47.0307 61.9523 47.094V50.343C61.9523 50.4063 61.9839 50.438 62.0473 50.438H64.5363C65.0683 50.438 65.4989 50.2797 65.8283 49.963C66.1703 49.6463 66.3413 49.2347 66.3413 48.728C66.3413 48.2213 66.1703 47.8097 65.8283 47.493C65.4989 47.1637 65.0683 46.999 64.5363 46.999H62.0473ZM79.6775 58C79.5508 58 79.4685 57.9367 79.4305 57.81L78.8605 55.948C78.8351 55.8973 78.8035 55.872 78.7655 55.872H74.0915C74.0535 55.872 74.0218 55.8973 73.9965 55.948L73.4455 57.81C73.4075 57.9367 73.3251 58 73.1985 58H70.7855C70.7095 58 70.6525 57.981 70.6145 57.943C70.5765 57.8923 70.5701 57.8227 70.5955 57.734L74.6995 44.89C74.7375 44.7633 74.8198 44.7 74.9465 44.7H77.9295C78.0561 44.7 78.1385 44.7633 78.1765 44.89L82.2805 57.734C82.2931 57.7593 82.2995 57.791 82.2995 57.829C82.2995 57.943 82.2298 58 82.0905 58H79.6775ZM74.6805 53.687C74.6678 53.763 74.6931 53.801 74.7565 53.801H78.1005C78.1765 53.801 78.2018 53.763 78.1765 53.687L76.4665 48.044C76.4538 47.9933 76.4348 47.9743 76.4095 47.987C76.3841 47.987 76.3651 48.006 76.3525 48.044L74.6805 53.687ZM87.151 58C87.0243 58 86.942 57.9367 86.904 57.81L82.99 44.966L82.971 44.89C82.971 44.7633 83.0407 44.7 83.18 44.7H85.574C85.7133 44.7 85.802 44.7633 85.84 44.89L88.367 54.162C88.3797 54.2 88.3987 54.219 88.424 54.219C88.4493 54.219 88.4683 54.2 88.481 54.162L90.97 44.89C91.008 44.7633 91.0967 44.7 91.236 44.7H93.573C93.649 44.7 93.706 44.7253 93.744 44.776C93.782 44.8267 93.7883 44.89 93.763 44.966L89.792 57.81C89.754 57.9367 89.6717 58 89.545 58H87.151ZM104.559 46.771C104.559 46.8343 104.534 46.8913 104.483 46.942C104.445 46.98 104.394 46.999 104.331 46.999H98.099C98.0357 46.999 98.004 47.0307 98.004 47.094V50.039C98.004 50.1023 98.0357 50.134 98.099 50.134H102.184C102.247 50.134 102.298 50.1593 102.336 50.21C102.387 50.248 102.412 50.2987 102.412 50.362V52.205C102.412 52.2683 102.387 52.3253 102.336 52.376C102.298 52.414 102.247 52.433 102.184 52.433H98.099C98.0357 52.433 98.004 52.4647 98.004 52.528V55.606C98.004 55.6693 98.0357 55.701 98.099 55.701H104.331C104.394 55.701 104.445 55.7263 104.483 55.777C104.534 55.815 104.559 55.8657 104.559 55.929V57.772C104.559 57.8353 104.534 57.8923 104.483 57.943C104.445 57.981 104.394 58 104.331 58H95.553C95.4897 58 95.4327 57.981 95.382 57.943C95.344 57.8923 95.325 57.8353 95.325 57.772V44.928C95.325 44.8647 95.344 44.814 95.382 44.776C95.4327 44.7253 95.4897 44.7 95.553 44.7H104.331C104.394 44.7 104.445 44.7253 104.483 44.776C104.534 44.814 104.559 44.8647 104.559 44.928V46.771ZM106.649 58C106.585 58 106.528 57.981 106.478 57.943C106.44 57.8923 106.421 57.8353 106.421 57.772V44.928C106.421 44.8647 106.44 44.814 106.478 44.776C106.528 44.7253 106.585 44.7 106.649 44.7H108.872C108.935 44.7 108.986 44.7253 109.024 44.776C109.074 44.814 109.1 44.8647 109.1 44.928V55.606C109.1 55.6693 109.131 55.701 109.195 55.701H115.408C115.471 55.701 115.522 55.7263 115.56 55.777C115.61 55.815 115.636 55.8657 115.636 55.929V57.772C115.636 57.8353 115.61 57.8923 115.56 57.943C115.522 57.981 115.471 58 115.408 58H106.649ZM118.605 58.076C118.174 58.076 117.813 57.9367 117.522 57.658C117.243 57.3667 117.104 57.0057 117.104 56.575C117.104 56.1317 117.243 55.7707 117.522 55.492C117.8 55.2133 118.161 55.074 118.605 55.074C119.048 55.074 119.409 55.2133 119.688 55.492C119.966 55.7707 120.106 56.1317 120.106 56.575C120.106 57.0057 119.96 57.3667 119.669 57.658C119.39 57.9367 119.035 58.076 118.605 58.076ZM127.089 58.152C126.114 58.152 125.252 57.9557 124.505 57.563C123.758 57.1703 123.175 56.6257 122.757 55.929C122.352 55.2197 122.149 54.4027 122.149 53.478V49.222C122.149 48.2973 122.352 47.4803 122.757 46.771C123.175 46.0617 123.758 45.517 124.505 45.137C125.252 44.7443 126.114 44.548 127.089 44.548C128.052 44.548 128.9 44.738 129.635 45.118C130.382 45.498 130.959 46.0173 131.364 46.676C131.782 47.322 131.991 48.044 131.991 48.842V48.975C131.991 49.0383 131.966 49.0953 131.915 49.146C131.877 49.184 131.826 49.203 131.763 49.203H129.54C129.477 49.203 129.42 49.184 129.369 49.146C129.331 49.0953 129.312 49.0383 129.312 48.975V48.918C129.312 48.3353 129.109 47.8477 128.704 47.455C128.299 47.0497 127.76 46.847 127.089 46.847C126.405 46.847 125.854 47.0623 125.436 47.493C125.031 47.911 124.828 48.462 124.828 49.146V53.554C124.828 54.238 125.05 54.7953 125.493 55.226C125.936 55.644 126.5 55.853 127.184 55.853C127.843 55.853 128.368 55.682 128.761 55.34C129.154 54.9853 129.35 54.4977 129.35 53.877V53.022C129.35 52.9587 129.318 52.927 129.255 52.927H127.127C127.064 52.927 127.007 52.908 126.956 52.87C126.918 52.8193 126.899 52.7623 126.899 52.699V50.951C126.899 50.8877 126.918 50.837 126.956 50.799C127.007 50.7483 127.064 50.723 127.127 50.723H131.763C131.826 50.723 131.877 50.7483 131.915 50.799C131.966 50.837 131.991 50.8877 131.991 50.951V53.459C131.991 54.4217 131.788 55.2577 131.383 55.967C130.978 56.6763 130.401 57.221 129.654 57.601C128.919 57.9683 128.064 58.152 127.089 58.152ZM138.78 58.209C137.792 58.209 136.918 58.0063 136.158 57.601C135.41 57.1957 134.828 56.632 134.41 55.91C133.992 55.1753 133.783 54.333 133.783 53.383V49.317C133.783 48.3797 133.992 47.55 134.41 46.828C134.828 46.106 135.41 45.5487 136.158 45.156C136.918 44.7507 137.792 44.548 138.78 44.548C139.78 44.548 140.654 44.7507 141.402 45.156C142.162 45.5487 142.751 46.106 143.169 46.828C143.587 47.55 143.796 48.3797 143.796 49.317V53.383C143.796 54.333 143.587 55.1753 143.169 55.91C142.751 56.6447 142.162 57.2147 141.402 57.62C140.654 58.0127 139.78 58.209 138.78 58.209ZM138.78 55.91C139.476 55.91 140.04 55.6883 140.471 55.245C140.901 54.8017 141.117 54.2127 141.117 53.478V49.298C141.117 48.5633 140.901 47.9743 140.471 47.531C140.053 47.075 139.489 46.847 138.78 46.847C138.083 46.847 137.519 47.075 137.089 47.531C136.671 47.9743 136.462 48.5633 136.462 49.298V53.478C136.462 54.2127 136.671 54.8017 137.089 55.245C137.519 55.6883 138.083 55.91 138.78 55.91Z" fill="#FFC107"/>
<path d="M80.936 25.0139L79.8793 24.3724L74.0893 33.901L73.0368 33.2163C65.652 29.23 54.8479 23.5492 36.2728 24.0238C10.5473 24.6797 5.63388 43.749 10.4589 54.0375C10.4589 54.0375 7.26798 40.4148 20.6114 32.0204C32.4355 24.5856 54.142 26.7276 69.9196 33.5441C69.924 33.5469 69.9349 33.5479 69.943 33.5529C70.061 33.6095 70.1108 33.7486 70.0543 33.8671C70.0026 33.9771 69.8742 34.0278 69.7634 33.9872C69.7593 33.9846 69.7488 33.9835 69.7405 33.9783C64.2697 32.0941 58.5501 31.0105 52.8234 30.5598C58.5273 31.2754 64.1571 32.6213 69.4635 34.7332C69.47 34.7319 69.4739 34.7344 69.478 34.7369L69.4902 34.7445C69.622 34.7982 69.6866 34.9407 69.6371 35.0751C69.5903 35.2051 69.4452 35.2739 69.3167 35.2333C69.3103 35.2351 69.3058 35.2323 69.3019 35.2299L69.2978 35.2273C61.5613 32.7331 46.3899 30.1291 30.4624 38.5976C6.64225 51.261 18.7847 70.3481 34.0327 67.3335C34.0327 67.3335 22.8659 60.375 30.5163 49.9238C37.475 40.4185 55.7156 32.6465 71.589 38.0146L66.1293 47.0038L67.1839 47.6494C67.978 48.1273 68.9866 48.0616 69.7063 47.4807L76.9966 41.6065L79.8424 43.7043C82.3308 45.5452 85.4953 45.9353 86.5193 44.292C87.4641 42.7758 86.0553 40.3899 83.6785 38.9089C83.4778 38.7838 83.2677 38.6645 83.0524 38.5529L79.9999 36.9695L81.9502 27.33C82.13 26.4262 81.7344 25.511 80.9553 25.026C80.9488 25.0219 80.9422 25.0178 80.936 25.0139Z" fill="url(#paint0_linear)"/>
<path d="M80.9355 25.0146L79.8788 24.3731L74.0887 33.9017C74.0887 33.9017 76.8724 35.1808 79.9994 36.9702L81.9497 27.3307C82.1294 26.4269 81.7336 25.512 80.9548 25.0267C80.9482 25.0226 80.9417 25.0185 80.9355 25.0146Z" fill="url(#paint1_linear)"/>
<path d="M30.4709 43.4801C22.2861 49.2986 20.3682 57.538 25.3048 66.6351C27.8928 67.6376 30.8972 67.9544 34.0339 67.3341C34.0339 67.3341 22.8671 60.3757 30.5174 49.9244C37.4761 40.4191 55.7167 32.6471 71.5901 38.0152C71.5901 38.0152 51.5784 28.475 30.4709 43.4801Z" fill="url(#paint2_linear)"/>
<path d="M71.5889 38.0146C71.7101 38.0848 71.8184 38.1577 71.917 38.2364C71.9336 38.2467 71.9512 38.2635 71.9717 38.2763C72.9162 38.9159 75.4006 40.5894 76.9965 41.6066L79.8423 43.7043C82.3308 45.5452 85.4953 45.9353 86.5193 44.292C87.1347 43.3044 86.746 41.9475 85.7476 40.7103C85.7595 45.4115 74.8744 39.8175 71.5889 38.0146Z" fill="url(#paint3_linear)"/>
<path d="M66.1295 47.0041L67.1841 47.6497C67.9783 48.1277 68.9868 48.0619 69.7066 47.481L76.9968 41.6069C74.9931 40.3278 71.5892 38.0149 71.5892 38.0149L66.1295 47.0041Z" fill="url(#paint4_linear)"/>
<path d="M69.9396 33.5517C69.9425 33.5531 69.944 33.554 69.944 33.554C69.9425 33.5531 69.9408 33.5524 69.9396 33.5517ZM36.2304 26.0348C20.343 27.7362 15.704 33.2981 11.3248 40.6676C9.13191 44.3581 9.47606 49.5575 10.3659 53.8296C10.3975 53.8992 10.4276 53.9699 10.4599 54.0386C10.4599 54.0386 7.26898 40.4159 20.6124 32.0215C32.4365 24.5867 54.143 26.7287 69.9206 33.5452C69.9241 33.5474 69.9323 33.5488 69.9396 33.5517C69.6241 33.3893 51.9748 24.3487 36.2304 26.0348Z" fill="url(#paint5_linear)"/>
<path d="M32.5672 51.2017C25.5315 62.0359 35.6857 67.6523 41.0827 65.6108C41.0827 65.6108 32.8575 59.8951 39.4118 50.489C45.9658 41.0827 54.7295 38.8417 54.7295 38.8417C54.7295 38.8417 39.6028 40.3675 32.5672 51.2017Z" fill="url(#paint6_linear)"/>
<path d="M27.8165 20.9331C13.6838 25.3538 11.0133 33.9303 11.0133 33.9303C11.0133 33.9303 23.6693 11.8399 65.9037 27.8294C65.9037 27.8294 42.894 16.2174 27.8165 20.9331Z" fill="url(#paint7_linear)"/>
<g opacity="0.350006">
<g opacity="0.350006">
<path opacity="0.350006" d="M11.0133 33.9303C11.0133 33.9303 20.7284 16.9768 51.5355 23.527C42.9659 20.7944 35.6021 20.1134 29.5116 20.4806C28.9372 20.6112 28.371 20.7597 27.8168 20.9333C13.6838 25.3538 11.0133 33.9303 11.0133 33.9303Z" fill="#FFC107"/>
</g>
</g>
<defs>
<linearGradient id="paint0_linear" x1="65.1352" y1="27.6447" x2="28.3368" y2="53.8305" gradientUnits="userSpaceOnUse">
<stop stop-color="#02A4FF"/>
<stop offset="1" stop-color="#003F8A"/>
</linearGradient>
<linearGradient id="paint1_linear" x1="78.9717" y1="31.0188" x2="76.654" y2="36.3303" gradientUnits="userSpaceOnUse">
<stop stop-color="#00A3FF"/>
<stop offset="0.999659" stop-color="#541085"/>
<stop offset="1" stop-color="#003F8A"/>
</linearGradient>
<linearGradient id="paint2_linear" x1="27.9451" y1="58.2717" x2="60.1093" y2="36.7837" gradientUnits="userSpaceOnUse">
<stop stop-color="#FFC737"/>
<stop offset="0.999659" stop-color="#E974FC"/>
<stop offset="1" stop-color="#E974FC"/>
</linearGradient>
<linearGradient id="paint3_linear" x1="76.7307" y1="41.3824" x2="86.2531" y2="43.3337" gradientUnits="userSpaceOnUse">
<stop offset="0.541667" stop-color="white"/>
<stop offset="0.999559" stop-color="white"/>
</linearGradient>
<linearGradient id="paint4_linear" x1="71.238" y1="44.7135" x2="74.6497" y2="39.2385" gradientUnits="userSpaceOnUse">
<stop stop-color="#02A4FF" stop-opacity="0.47"/>
<stop offset="0.999659" stop-color="#541085"/>
<stop offset="1" stop-color="#541085"/>
<stop offset="1" stop-color="#003F8A"/>
</linearGradient>
<linearGradient id="paint5_linear" x1="10.3759" y1="42.3126" x2="59.9713" y2="33.251" gradientUnits="userSpaceOnUse">
<stop stop-color="#FFC737"/>
<stop offset="0.999659" stop-color="#E974FC"/>
<stop offset="1" stop-color="#E974FC"/>
</linearGradient>
<linearGradient id="paint6_linear" x1="47.3037" y1="42.2032" x2="36.9013" y2="58.2881" gradientUnits="userSpaceOnUse">
<stop stop-color="#F9532C"/>
<stop offset="0.999659" stop-color="#FF9948"/>
<stop offset="1" stop-color="#FF9948"/>
</linearGradient>
<linearGradient id="paint7_linear" x1="48.9227" y1="23.9034" x2="20.6954" y2="29.6394" gradientUnits="userSpaceOnUse">
<stop stop-color="#F9532C"/>
<stop offset="0.999659" stop-color="#FF9948"/>
<stop offset="1" stop-color="#FF9948"/>
</linearGradient>
</defs>
</svg>
