<svg width="156" height="93" viewBox="0 0 156 93" fill="none" xmlns="http://www.w3.org/2000/svg">
<path d="M57.335 48.7C57.3984 48.7 57.449 48.7253 57.487 48.776C57.5377 48.814 57.563 48.8647 57.563 48.928V50.79C57.563 50.8533 57.5377 50.9103 57.487 50.961C57.449 50.999 57.3984 51.018 57.335 51.018H53.934C53.8707 51.018 53.839 51.0497 53.839 51.113V61.772C53.839 61.8353 53.8137 61.8923 53.763 61.943C53.725 61.981 53.6744 62 53.611 62H51.388C51.3247 62 51.2677 61.981 51.217 61.943C51.179 61.8923 51.16 61.8353 51.16 61.772V51.113C51.16 51.0497 51.1284 51.018 51.065 51.018H47.759C47.6957 51.018 47.6387 50.999 47.588 50.961C47.55 50.9103 47.531 50.8533 47.531 50.79V48.928C47.531 48.8647 47.55 48.814 47.588 48.776C47.6387 48.7253 47.6957 48.7 47.759 48.7H57.335ZM66.5683 62C66.4416 62 66.3529 61.943 66.3023 61.829L63.9273 56.566C63.9019 56.5153 63.8639 56.49 63.8133 56.49H62.0463C61.9829 56.49 61.9513 56.5217 61.9513 56.585V61.772C61.9513 61.8353 61.9259 61.8923 61.8753 61.943C61.8373 61.981 61.7866 62 61.7233 62H59.5003C59.4369 62 59.3799 61.981 59.3293 61.943C59.2913 61.8923 59.2723 61.8353 59.2723 61.772V48.928C59.2723 48.8647 59.2913 48.814 59.3293 48.776C59.3799 48.7253 59.4369 48.7 59.5003 48.7H64.9343C65.7449 48.7 66.4543 48.8647 67.0623 49.194C67.6829 49.5233 68.1579 49.992 68.4873 50.6C68.8293 51.208 69.0003 51.911 69.0003 52.709C69.0003 53.5703 68.7849 54.3113 68.3543 54.932C67.9236 55.54 67.3219 55.9707 66.5493 56.224C66.4859 56.2493 66.4669 56.2937 66.4923 56.357L69.0763 61.734C69.1016 61.7847 69.1143 61.8227 69.1143 61.848C69.1143 61.9493 69.0446 62 68.9053 62H66.5683ZM62.0463 50.999C61.9829 50.999 61.9513 51.0307 61.9513 51.094V54.343C61.9513 54.4063 61.9829 54.438 62.0463 54.438H64.5353C65.0673 54.438 65.4979 54.2797 65.8273 53.963C66.1693 53.6463 66.3403 53.2347 66.3403 52.728C66.3403 52.2213 66.1693 51.8097 65.8273 51.493C65.4979 51.1637 65.0673 50.999 64.5353 50.999H62.0463ZM79.6765 62C79.5498 62 79.4675 61.9367 79.4295 61.81L78.8595 59.948C78.8342 59.8973 78.8025 59.872 78.7645 59.872H74.0905C74.0525 59.872 74.0208 59.8973 73.9955 59.948L73.4445 61.81C73.4065 61.9367 73.3242 62 73.1975 62H70.7845C70.7085 62 70.6515 61.981 70.6135 61.943C70.5755 61.8923 70.5692 61.8227 70.5945 61.734L74.6985 48.89C74.7365 48.7633 74.8188 48.7 74.9455 48.7H77.9285C78.0552 48.7 78.1375 48.7633 78.1755 48.89L82.2795 61.734C82.2922 61.7593 82.2985 61.791 82.2985 61.829C82.2985 61.943 82.2288 62 82.0895 62H79.6765ZM74.6795 57.687C74.6668 57.763 74.6922 57.801 74.7555 57.801H78.0995C78.1755 57.801 78.2008 57.763 78.1755 57.687L76.4655 52.044C76.4528 51.9933 76.4338 51.9743 76.4085 51.987C76.3832 51.987 76.3642 52.006 76.3515 52.044L74.6795 57.687ZM87.15 62C87.0234 62 86.941 61.9367 86.903 61.81L82.989 48.966L82.97 48.89C82.97 48.7633 83.0397 48.7 83.179 48.7H85.573C85.7124 48.7 85.801 48.7633 85.839 48.89L88.366 58.162C88.3787 58.2 88.3977 58.219 88.423 58.219C88.4484 58.219 88.4674 58.2 88.48 58.162L90.969 48.89C91.007 48.7633 91.0957 48.7 91.235 48.7H93.572C93.648 48.7 93.705 48.7253 93.743 48.776C93.781 48.8267 93.7874 48.89 93.762 48.966L89.791 61.81C89.753 61.9367 89.6707 62 89.544 62H87.15ZM104.558 50.771C104.558 50.8343 104.533 50.8913 104.482 50.942C104.444 50.98 104.393 50.999 104.33 50.999H98.098C98.0347 50.999 98.003 51.0307 98.003 51.094V54.039C98.003 54.1023 98.0347 54.134 98.098 54.134H102.183C102.246 54.134 102.297 54.1593 102.335 54.21C102.386 54.248 102.411 54.2987 102.411 54.362V56.205C102.411 56.2683 102.386 56.3253 102.335 56.376C102.297 56.414 102.246 56.433 102.183 56.433H98.098C98.0347 56.433 98.003 56.4647 98.003 56.528V59.606C98.003 59.6693 98.0347 59.701 98.098 59.701H104.33C104.393 59.701 104.444 59.7263 104.482 59.777C104.533 59.815 104.558 59.8657 104.558 59.929V61.772C104.558 61.8353 104.533 61.8923 104.482 61.943C104.444 61.981 104.393 62 104.33 62H95.552C95.4887 62 95.4317 61.981 95.381 61.943C95.343 61.8923 95.324 61.8353 95.324 61.772V48.928C95.324 48.8647 95.343 48.814 95.381 48.776C95.4317 48.7253 95.4887 48.7 95.552 48.7H104.33C104.393 48.7 104.444 48.7253 104.482 48.776C104.533 48.814 104.558 48.8647 104.558 48.928V50.771ZM106.648 62C106.584 62 106.527 61.981 106.477 61.943C106.439 61.8923 106.42 61.8353 106.42 61.772V48.928C106.42 48.8647 106.439 48.814 106.477 48.776C106.527 48.7253 106.584 48.7 106.648 48.7H108.871C108.934 48.7 108.985 48.7253 109.023 48.776C109.073 48.814 109.099 48.8647 109.099 48.928V59.606C109.099 59.6693 109.13 59.701 109.194 59.701H115.407C115.47 59.701 115.521 59.7263 115.559 59.777C115.609 59.815 115.635 59.8657 115.635 59.929V61.772C115.635 61.8353 115.609 61.8923 115.559 61.943C115.521 61.981 115.47 62 115.407 62H106.648ZM118.604 62.076C118.173 62.076 117.812 61.9367 117.521 61.658C117.242 61.3667 117.103 61.0057 117.103 60.575C117.103 60.1317 117.242 59.7707 117.521 59.492C117.799 59.2133 118.16 59.074 118.604 59.074C119.047 59.074 119.408 59.2133 119.687 59.492C119.965 59.7707 120.105 60.1317 120.105 60.575C120.105 61.0057 119.959 61.3667 119.668 61.658C119.389 61.9367 119.034 62.076 118.604 62.076ZM127.088 62.152C126.113 62.152 125.251 61.9557 124.504 61.563C123.757 61.1703 123.174 60.6257 122.756 59.929C122.351 59.2197 122.148 58.4027 122.148 57.478V53.222C122.148 52.2973 122.351 51.4803 122.756 50.771C123.174 50.0617 123.757 49.517 124.504 49.137C125.251 48.7443 126.113 48.548 127.088 48.548C128.051 48.548 128.899 48.738 129.634 49.118C130.381 49.498 130.958 50.0173 131.363 50.676C131.781 51.322 131.99 52.044 131.99 52.842V52.975C131.99 53.0383 131.965 53.0953 131.914 53.146C131.876 53.184 131.825 53.203 131.762 53.203H129.539C129.476 53.203 129.419 53.184 129.368 53.146C129.33 53.0953 129.311 53.0383 129.311 52.975V52.918C129.311 52.3353 129.108 51.8477 128.703 51.455C128.298 51.0497 127.759 50.847 127.088 50.847C126.404 50.847 125.853 51.0623 125.435 51.493C125.03 51.911 124.827 52.462 124.827 53.146V57.554C124.827 58.238 125.049 58.7953 125.492 59.226C125.935 59.644 126.499 59.853 127.183 59.853C127.842 59.853 128.367 59.682 128.76 59.34C129.153 58.9853 129.349 58.4977 129.349 57.877V57.022C129.349 56.9587 129.317 56.927 129.254 56.927H127.126C127.063 56.927 127.006 56.908 126.955 56.87C126.917 56.8193 126.898 56.7623 126.898 56.699V54.951C126.898 54.8877 126.917 54.837 126.955 54.799C127.006 54.7483 127.063 54.723 127.126 54.723H131.762C131.825 54.723 131.876 54.7483 131.914 54.799C131.965 54.837 131.99 54.8877 131.99 54.951V57.459C131.99 58.4217 131.787 59.2577 131.382 59.967C130.977 60.6763 130.4 61.221 129.653 61.601C128.918 61.9683 128.063 62.152 127.088 62.152ZM138.779 62.209C137.791 62.209 136.917 62.0063 136.157 61.601C135.409 61.1957 134.827 60.632 134.409 59.91C133.991 59.1753 133.782 58.333 133.782 57.383V53.317C133.782 52.3797 133.991 51.55 134.409 50.828C134.827 50.106 135.409 49.5487 136.157 49.156C136.917 48.7507 137.791 48.548 138.779 48.548C139.779 48.548 140.653 48.7507 141.401 49.156C142.161 49.5487 142.75 50.106 143.168 50.828C143.586 51.55 143.795 52.3797 143.795 53.317V57.383C143.795 58.333 143.586 59.1753 143.168 59.91C142.75 60.6447 142.161 61.2147 141.401 61.62C140.653 62.0127 139.779 62.209 138.779 62.209ZM138.779 59.91C139.475 59.91 140.039 59.6883 140.47 59.245C140.9 58.8017 141.116 58.2127 141.116 57.478V53.298C141.116 52.5633 140.9 51.9743 140.47 51.531C140.052 51.075 139.488 50.847 138.779 50.847C138.082 50.847 137.518 51.075 137.088 51.531C136.67 51.9743 136.461 52.5633 136.461 53.298V57.478C136.461 58.2127 136.67 58.8017 137.088 59.245C137.518 59.6883 138.082 59.91 138.779 59.91Z" fill="#FFC107"/>
<path d="M55.0679 77.12C54.3479 77.12 53.7279 76.935 53.2079 76.565C52.6979 76.185 52.3479 75.675 52.1579 75.035C52.0279 74.595 51.9629 73.975 51.9629 73.175C51.9629 72.455 52.0279 71.845 52.1579 71.345C52.3379 70.725 52.6879 70.23 53.2079 69.86C53.7279 69.48 54.3479 69.29 55.0679 69.29C55.7979 69.29 56.4279 69.475 56.9579 69.845C57.4979 70.215 57.8479 70.675 58.0079 71.225C58.0579 71.405 58.0879 71.555 58.0979 71.675V71.705C58.0979 71.775 58.0529 71.82 57.9629 71.84L57.2129 71.945H57.1829C57.1129 71.945 57.0679 71.9 57.0479 71.81L57.0029 71.585C56.9129 71.205 56.6929 70.885 56.3429 70.625C55.9929 70.355 55.5679 70.22 55.0679 70.22C54.5679 70.22 54.1479 70.355 53.8079 70.625C53.4779 70.885 53.2629 71.235 53.1629 71.675C53.0729 72.055 53.0279 72.56 53.0279 73.19C53.0279 73.85 53.0729 74.36 53.1629 74.72C53.2629 75.17 53.4779 75.53 53.8079 75.8C54.1479 76.06 54.5679 76.19 55.0679 76.19C55.5579 76.19 55.9779 76.065 56.3279 75.815C56.6879 75.555 56.9129 75.225 57.0029 74.825V74.765L57.0179 74.705C57.0279 74.605 57.0879 74.565 57.1979 74.585L57.9329 74.705C58.0329 74.725 58.0779 74.78 58.0679 74.87L58.0079 75.17C57.8579 75.75 57.5129 76.22 56.9729 76.58C56.4329 76.94 55.7979 77.12 55.0679 77.12ZM63.0559 69.335C63.3859 69.335 63.6709 69.4 63.9109 69.53C63.9909 69.57 64.0209 69.635 64.0009 69.725L63.8359 70.46C63.8059 70.56 63.7409 70.59 63.6409 70.55C63.4709 70.48 63.2759 70.445 63.0559 70.445L62.8609 70.46C62.3409 70.48 61.9109 70.675 61.5709 71.045C61.2309 71.405 61.0609 71.865 61.0609 72.425V76.85C61.0609 76.95 61.0109 77 60.9109 77H60.1459C60.0459 77 59.9959 76.95 59.9959 76.85V69.56C59.9959 69.46 60.0459 69.41 60.1459 69.41H60.9109C61.0109 69.41 61.0609 69.46 61.0609 69.56V70.475C61.0609 70.505 61.0659 70.525 61.0759 70.535C61.0959 70.535 61.1109 70.525 61.1209 70.505C61.3309 70.135 61.5959 69.85 61.9159 69.65C62.2459 69.44 62.6259 69.335 63.0559 69.335ZM71.2065 71.93C71.2465 72.21 71.2665 72.56 71.2665 72.98V73.46C71.2665 73.56 71.2165 73.61 71.1165 73.61H66.2715C66.2315 73.61 66.2115 73.63 66.2115 73.67C66.2315 74.22 66.2615 74.575 66.3015 74.735C66.4115 75.185 66.6465 75.54 67.0065 75.8C67.3665 76.06 67.8265 76.19 68.3865 76.19C68.8065 76.19 69.1765 76.095 69.4965 75.905C69.8165 75.715 70.0665 75.445 70.2465 75.095C70.3065 75.005 70.3765 74.985 70.4565 75.035L71.0415 75.38C71.1215 75.43 71.1415 75.5 71.1015 75.59C70.8515 76.07 70.4765 76.45 69.9765 76.73C69.4765 77 68.9015 77.135 68.2515 77.135C67.5415 77.125 66.9465 76.955 66.4665 76.625C65.9865 76.295 65.6415 75.835 65.4315 75.245C65.2515 74.765 65.1615 74.075 65.1615 73.175C65.1615 72.755 65.1665 72.415 65.1765 72.155C65.1965 71.885 65.2365 71.645 65.2965 71.435C65.4665 70.785 65.8065 70.265 66.3165 69.875C66.8365 69.485 67.4615 69.29 68.1915 69.29C69.1015 69.29 69.8015 69.52 70.2915 69.98C70.7815 70.44 71.0865 71.09 71.2065 71.93ZM68.1915 70.22C67.7015 70.22 67.2915 70.35 66.9615 70.61C66.6415 70.86 66.4315 71.2 66.3315 71.63C66.2715 71.84 66.2315 72.18 66.2115 72.65C66.2115 72.69 66.2315 72.71 66.2715 72.71H70.1565C70.1965 72.71 70.2165 72.69 70.2165 72.65C70.1965 72.2 70.1665 71.88 70.1265 71.69C70.0165 71.24 69.7915 70.885 69.4515 70.625C69.1215 70.355 68.7015 70.22 68.1915 70.22ZM75.9363 69.29C76.8363 69.29 77.5313 69.52 78.0213 69.98C78.5113 70.44 78.7563 71.05 78.7563 71.81V76.85C78.7563 76.95 78.7063 77 78.6063 77H77.8413C77.7413 77 77.6913 76.95 77.6913 76.85V76.235C77.6913 76.215 77.6813 76.2 77.6613 76.19C77.6513 76.18 77.6363 76.185 77.6163 76.205C77.3663 76.505 77.0413 76.735 76.6413 76.895C76.2413 77.045 75.7963 77.12 75.3063 77.12C74.5963 77.12 74.0013 76.94 73.5213 76.58C73.0413 76.22 72.8013 75.67 72.8013 74.93C72.8013 74.18 73.0713 73.59 73.6113 73.16C74.1613 72.72 74.9213 72.5 75.8913 72.5H77.6313C77.6713 72.5 77.6913 72.48 77.6913 72.44V71.87C77.6913 71.36 77.5463 70.96 77.2563 70.67C76.9763 70.37 76.5363 70.22 75.9363 70.22C75.4563 70.22 75.0663 70.315 74.7663 70.505C74.4663 70.685 74.2813 70.94 74.2113 71.27C74.1813 71.37 74.1213 71.415 74.0313 71.405L73.2213 71.3C73.1113 71.28 73.0663 71.24 73.0863 71.18C73.1663 70.62 73.4663 70.165 73.9863 69.815C74.5063 69.465 75.1563 69.29 75.9363 69.29ZM75.5163 76.205C76.1063 76.205 76.6163 76.06 77.0463 75.77C77.4763 75.47 77.6913 75.07 77.6913 74.57V73.4C77.6913 73.36 77.6713 73.34 77.6313 73.34H76.0563C75.3963 73.34 74.8663 73.475 74.4663 73.745C74.0663 74.015 73.8663 74.39 73.8663 74.87C73.8663 75.31 74.0163 75.645 74.3163 75.875C74.6263 76.095 75.0263 76.205 75.5163 76.205ZM84.3189 70.145C84.3189 70.245 84.2689 70.295 84.1689 70.295H82.4739C82.4339 70.295 82.4139 70.315 82.4139 70.355V74.78C82.4139 75.26 82.5189 75.6 82.7289 75.8C82.9489 75.99 83.2889 76.085 83.7489 76.085H84.1239C84.2239 76.085 84.2739 76.135 84.2739 76.235V76.85C84.2739 76.95 84.2239 77 84.1239 77C84.0039 77.01 83.8189 77.015 83.5689 77.015C82.8489 77.015 82.3039 76.88 81.9339 76.61C81.5639 76.34 81.3789 75.84 81.3789 75.11V70.355C81.3789 70.315 81.3589 70.295 81.3189 70.295H80.4039C80.3039 70.295 80.2539 70.245 80.2539 70.145V69.56C80.2539 69.46 80.3039 69.41 80.4039 69.41H81.3189C81.3589 69.41 81.3789 69.39 81.3789 69.35V67.61C81.3789 67.51 81.4289 67.46 81.5289 67.46H82.2639C82.3639 67.46 82.4139 67.51 82.4139 67.61V69.35C82.4139 69.39 82.4339 69.41 82.4739 69.41H84.1689C84.2689 69.41 84.3189 69.46 84.3189 69.56V70.145ZM91.978 71.93C92.018 72.21 92.038 72.56 92.038 72.98V73.46C92.038 73.56 91.988 73.61 91.888 73.61H87.043C87.003 73.61 86.983 73.63 86.983 73.67C87.003 74.22 87.033 74.575 87.073 74.735C87.183 75.185 87.418 75.54 87.778 75.8C88.138 76.06 88.598 76.19 89.158 76.19C89.578 76.19 89.948 76.095 90.268 75.905C90.588 75.715 90.838 75.445 91.018 75.095C91.078 75.005 91.148 74.985 91.228 75.035L91.813 75.38C91.893 75.43 91.913 75.5 91.873 75.59C91.623 76.07 91.248 76.45 90.748 76.73C90.248 77 89.673 77.135 89.023 77.135C88.313 77.125 87.718 76.955 87.238 76.625C86.758 76.295 86.413 75.835 86.203 75.245C86.023 74.765 85.933 74.075 85.933 73.175C85.933 72.755 85.938 72.415 85.948 72.155C85.968 71.885 86.008 71.645 86.068 71.435C86.238 70.785 86.578 70.265 87.088 69.875C87.608 69.485 88.233 69.29 88.963 69.29C89.873 69.29 90.573 69.52 91.063 69.98C91.553 70.44 91.858 71.09 91.978 71.93ZM88.963 70.22C88.473 70.22 88.063 70.35 87.733 70.61C87.413 70.86 87.203 71.2 87.103 71.63C87.043 71.84 87.003 72.18 86.983 72.65C86.983 72.69 87.003 72.71 87.043 72.71H90.928C90.968 72.71 90.988 72.69 90.988 72.65C90.968 72.2 90.938 71.88 90.898 71.69C90.788 71.24 90.563 70.885 90.223 70.625C89.893 70.355 89.473 70.22 88.963 70.22ZM99.784 69.29C100.684 69.29 101.379 69.52 101.869 69.98C102.359 70.44 102.604 71.05 102.604 71.81V76.85C102.604 76.95 102.554 77 102.454 77H101.689C101.589 77 101.539 76.95 101.539 76.85V76.235C101.539 76.215 101.529 76.2 101.509 76.19C101.499 76.18 101.484 76.185 101.464 76.205C101.214 76.505 100.889 76.735 100.489 76.895C100.089 77.045 99.644 77.12 99.154 77.12C98.444 77.12 97.849 76.94 97.369 76.58C96.889 76.22 96.649 75.67 96.649 74.93C96.649 74.18 96.919 73.59 97.459 73.16C98.009 72.72 98.769 72.5 99.739 72.5H101.479C101.519 72.5 101.539 72.48 101.539 72.44V71.87C101.539 71.36 101.394 70.96 101.104 70.67C100.824 70.37 100.384 70.22 99.784 70.22C99.304 70.22 98.914 70.315 98.614 70.505C98.314 70.685 98.129 70.94 98.059 71.27C98.029 71.37 97.969 71.415 97.879 71.405L97.069 71.3C96.959 71.28 96.914 71.24 96.934 71.18C97.014 70.62 97.314 70.165 97.834 69.815C98.354 69.465 99.004 69.29 99.784 69.29ZM99.364 76.205C99.954 76.205 100.464 76.06 100.894 75.77C101.324 75.47 101.539 75.07 101.539 74.57V73.4C101.539 73.36 101.519 73.34 101.479 73.34H99.904C99.244 73.34 98.714 73.475 98.314 73.745C97.914 74.015 97.714 74.39 97.714 74.87C97.714 75.31 97.864 75.645 98.164 75.875C98.474 76.095 98.874 76.205 99.364 76.205ZM107.685 77.12C106.965 77.12 106.345 76.935 105.825 76.565C105.315 76.185 104.965 75.675 104.775 75.035C104.645 74.595 104.58 73.975 104.58 73.175C104.58 72.455 104.645 71.845 104.775 71.345C104.955 70.725 105.305 70.23 105.825 69.86C106.345 69.48 106.965 69.29 107.685 69.29C108.415 69.29 109.045 69.475 109.575 69.845C110.115 70.215 110.465 70.675 110.625 71.225C110.675 71.405 110.705 71.555 110.715 71.675V71.705C110.715 71.775 110.67 71.82 110.58 71.84L109.83 71.945H109.8C109.73 71.945 109.685 71.9 109.665 71.81L109.62 71.585C109.53 71.205 109.31 70.885 108.96 70.625C108.61 70.355 108.185 70.22 107.685 70.22C107.185 70.22 106.765 70.355 106.425 70.625C106.095 70.885 105.88 71.235 105.78 71.675C105.69 72.055 105.645 72.56 105.645 73.19C105.645 73.85 105.69 74.36 105.78 74.72C105.88 75.17 106.095 75.53 106.425 75.8C106.765 76.06 107.185 76.19 107.685 76.19C108.175 76.19 108.595 76.065 108.945 75.815C109.305 75.555 109.53 75.225 109.62 74.825V74.765L109.635 74.705C109.645 74.605 109.705 74.565 109.815 74.585L110.55 74.705C110.65 74.725 110.695 74.78 110.685 74.87L110.625 75.17C110.475 75.75 110.13 76.22 109.59 76.58C109.05 76.94 108.415 77.12 107.685 77.12ZM115.434 77.12C114.714 77.12 114.094 76.935 113.574 76.565C113.064 76.185 112.714 75.675 112.524 75.035C112.394 74.595 112.329 73.975 112.329 73.175C112.329 72.455 112.394 71.845 112.524 71.345C112.704 70.725 113.054 70.23 113.574 69.86C114.094 69.48 114.714 69.29 115.434 69.29C116.164 69.29 116.794 69.475 117.324 69.845C117.864 70.215 118.214 70.675 118.374 71.225C118.424 71.405 118.454 71.555 118.464 71.675V71.705C118.464 71.775 118.419 71.82 118.329 71.84L117.579 71.945H117.549C117.479 71.945 117.434 71.9 117.414 71.81L117.369 71.585C117.279 71.205 117.059 70.885 116.709 70.625C116.359 70.355 115.934 70.22 115.434 70.22C114.934 70.22 114.514 70.355 114.174 70.625C113.844 70.885 113.629 71.235 113.529 71.675C113.439 72.055 113.394 72.56 113.394 73.19C113.394 73.85 113.439 74.36 113.529 74.72C113.629 75.17 113.844 75.53 114.174 75.8C114.514 76.06 114.934 76.19 115.434 76.19C115.924 76.19 116.344 76.065 116.694 75.815C117.054 75.555 117.279 75.225 117.369 74.825V74.765L117.384 74.705C117.394 74.605 117.454 74.565 117.564 74.585L118.299 74.705C118.399 74.725 118.444 74.78 118.434 74.87L118.374 75.17C118.224 75.75 117.879 76.22 117.339 76.58C116.799 76.94 116.164 77.12 115.434 77.12ZM123.213 77.12C122.493 77.12 121.873 76.935 121.353 76.565C120.833 76.195 120.473 75.685 120.273 75.035C120.133 74.575 120.063 73.96 120.063 73.19C120.063 72.42 120.133 71.81 120.273 71.36C120.463 70.72 120.818 70.215 121.338 69.845C121.858 69.475 122.488 69.29 123.228 69.29C123.938 69.29 124.548 69.475 125.058 69.845C125.578 70.215 125.933 70.715 126.123 71.345C126.263 71.775 126.333 72.39 126.333 73.19C126.333 74 126.263 74.615 126.123 75.035C125.933 75.685 125.578 76.195 125.058 76.565C124.548 76.935 123.933 77.12 123.213 77.12ZM123.213 76.19C123.693 76.19 124.103 76.06 124.443 75.8C124.783 75.53 125.013 75.17 125.133 74.72C125.223 74.36 125.268 73.855 125.268 73.205C125.268 72.545 125.228 72.04 125.148 71.69C125.028 71.24 124.793 70.885 124.443 70.625C124.103 70.355 123.688 70.22 123.198 70.22C122.708 70.22 122.293 70.355 121.953 70.625C121.613 70.885 121.383 71.24 121.263 71.69C121.183 72.04 121.143 72.545 121.143 73.205C121.143 73.865 121.183 74.37 121.263 74.72C121.373 75.17 121.598 75.53 121.938 75.8C122.288 76.06 122.713 76.19 123.213 76.19ZM133.082 69.56C133.082 69.46 133.132 69.41 133.232 69.41H133.997C134.097 69.41 134.147 69.46 134.147 69.56V76.85C134.147 76.95 134.097 77 133.997 77H133.232C133.132 77 133.082 76.95 133.082 76.85V76.205C133.082 76.185 133.072 76.17 133.052 76.16C133.032 76.15 133.017 76.155 133.007 76.175C132.587 76.795 131.922 77.105 131.012 77.105C130.532 77.105 130.087 77.01 129.677 76.82C129.277 76.62 128.957 76.335 128.717 75.965C128.487 75.595 128.372 75.15 128.372 74.63V69.56C128.372 69.46 128.422 69.41 128.522 69.41H129.287C129.387 69.41 129.437 69.46 129.437 69.56V74.315C129.437 74.885 129.597 75.34 129.917 75.68C130.237 76.01 130.672 76.175 131.222 76.175C131.792 76.175 132.242 76.005 132.572 75.665C132.912 75.325 133.082 74.875 133.082 74.315V69.56ZM139.684 69.305C140.484 69.305 141.119 69.54 141.589 70.01C142.069 70.48 142.309 71.11 142.309 71.9V76.85C142.309 76.95 142.259 77 142.159 77H141.394C141.294 77 141.244 76.95 141.244 76.85V72.11C141.244 71.56 141.074 71.11 140.734 70.76C140.404 70.41 139.974 70.235 139.444 70.235C138.894 70.235 138.449 70.405 138.109 70.745C137.769 71.085 137.599 71.53 137.599 72.08V76.85C137.599 76.95 137.549 77 137.449 77H136.684C136.584 77 136.534 76.95 136.534 76.85V69.56C136.534 69.46 136.584 69.41 136.684 69.41H137.449C137.549 69.41 137.599 69.46 137.599 69.56V70.205C137.599 70.225 137.604 70.24 137.614 70.25C137.634 70.26 137.649 70.255 137.659 70.235C138.099 69.615 138.774 69.305 139.684 69.305ZM148.025 70.145C148.025 70.245 147.975 70.295 147.875 70.295H146.18C146.14 70.295 146.12 70.315 146.12 70.355V74.78C146.12 75.26 146.225 75.6 146.435 75.8C146.655 75.99 146.995 76.085 147.455 76.085H147.83C147.93 76.085 147.98 76.135 147.98 76.235V76.85C147.98 76.95 147.93 77 147.83 77C147.71 77.01 147.525 77.015 147.275 77.015C146.555 77.015 146.01 76.88 145.64 76.61C145.27 76.34 145.085 75.84 145.085 75.11V70.355C145.085 70.315 145.065 70.295 145.025 70.295H144.11C144.01 70.295 143.96 70.245 143.96 70.145V69.56C143.96 69.46 144.01 69.41 144.11 69.41H145.025C145.065 69.41 145.085 69.39 145.085 69.35V67.61C145.085 67.51 145.135 67.46 145.235 67.46H145.97C146.07 67.46 146.12 67.51 146.12 67.61V69.35C146.12 69.39 146.14 69.41 146.18 69.41H147.875C147.975 69.41 148.025 69.46 148.025 69.56V70.145Z" fill="#FFC107"/>
<path d="M80.937 29.0139L79.8803 28.3724L74.0902 37.901L73.0377 37.2163C65.653 33.23 54.8489 27.5492 36.2737 28.0238C10.5482 28.6797 5.63486 47.749 10.4598 58.0375C10.4598 58.0375 7.26896 44.4148 20.6124 36.0204C32.4365 28.5856 54.143 30.7276 69.9206 37.5441C69.925 37.5469 69.9359 37.5479 69.9439 37.5529C70.062 37.6095 70.1118 37.7486 70.0553 37.8671C70.0036 37.9771 69.8751 38.0278 69.7644 37.9872C69.7602 37.9846 69.7498 37.9835 69.7415 37.9783C64.2706 36.0941 58.5511 35.0105 52.8243 34.5598C58.5283 35.2754 64.1581 36.6213 69.4644 38.7332C69.471 38.7319 69.4749 38.7344 69.479 38.7369L69.4912 38.7445C69.623 38.7982 69.6876 38.9407 69.638 39.0751C69.5913 39.2051 69.4462 39.2739 69.3177 39.2333C69.3112 39.2351 69.3068 39.2323 69.3029 39.2299L69.2988 39.2273C61.5622 36.7331 46.3908 34.1291 30.4634 42.5976C6.64322 55.261 18.7857 74.3481 34.0337 71.3335C34.0337 71.3335 22.8669 64.375 30.5173 53.9238C37.476 44.4185 55.7166 36.6465 71.5899 42.0146L66.1303 51.0038L67.1848 51.6494C67.979 52.1273 68.9875 52.0616 69.7073 51.4807L76.9976 45.6065L79.8433 47.7043C82.3318 49.5452 85.4963 49.9353 86.5203 48.292C87.4651 46.7758 86.0562 44.3899 83.6795 42.9089C83.4788 42.7838 83.2687 42.6645 83.0534 42.5529L80.0009 40.9695L81.9512 31.33C82.1309 30.4262 81.7353 29.511 80.9563 29.026C80.9497 29.0219 80.9432 29.0178 80.937 29.0139Z" fill="url(#paint0_linear)"/>
<path d="M80.9364 29.0142L79.8798 28.3726L74.0897 37.9012C74.0897 37.9012 76.8734 39.1803 80.0004 40.9697L81.9506 31.3302C82.1304 30.4264 81.7346 29.5115 80.9557 29.0262C80.9492 29.0221 80.9427 29.018 80.9364 29.0142" fill="url(#paint1_linear)"/>
<path d="M30.4709 47.4801C22.2861 53.2986 20.3682 61.538 25.3048 70.6351C27.8928 71.6376 30.8972 71.9544 34.0339 71.3341C34.0339 71.3341 22.8671 64.3757 30.5174 53.9244C37.4761 44.4191 55.7167 36.6471 71.5901 42.0152C71.5901 42.0152 51.5784 32.475 30.4709 47.4801" fill="url(#paint2_linear)"/>
<path d="M71.5889 42.0151C71.7101 42.0853 71.8184 42.1582 71.917 42.2369C71.9336 42.2472 71.9512 42.264 71.9717 42.2767C72.9162 42.9164 75.4006 44.5899 76.9965 45.607L79.8423 47.7048C82.3308 49.5457 85.4953 49.9358 86.5193 48.2925C87.1347 47.3049 86.746 45.948 85.7476 44.7108C85.7595 49.412 74.8744 43.818 71.5889 42.0151" fill="url(#paint3_linear)"/>
<path d="M66.1295 51.0041L67.1841 51.6497C67.9783 52.1277 68.9868 52.0619 69.7066 51.481L76.9968 45.6069C74.9931 44.3278 71.5892 42.0149 71.5892 42.0149L66.1295 51.0041Z" fill="url(#paint4_linear)"/>
<path d="M69.9406 37.5517C69.9435 37.5531 69.9449 37.554 69.9449 37.554C69.9435 37.5531 69.9418 37.5524 69.9406 37.5517ZM36.2314 30.0348C20.344 31.7362 15.7049 37.2981 11.3258 44.6676C9.13288 48.3581 9.47704 53.5575 10.3668 57.8296C10.3985 57.8992 10.4286 57.9699 10.4608 58.0386C10.4608 58.0386 7.26996 44.4159 20.6134 36.0215C32.4375 28.5867 54.144 30.7287 69.9216 37.5452C69.9251 37.5474 69.9333 37.5488 69.9406 37.5517C69.625 37.3893 51.9758 28.3487 36.2314 30.0348" fill="url(#paint5_linear)"/>
<path d="M32.5662 55.2012C25.5305 66.0354 35.6847 71.6518 41.0817 69.6104C41.0817 69.6104 32.8565 63.8946 39.4108 54.4885C45.9648 45.0822 54.7285 42.8412 54.7285 42.8412C54.7285 42.8412 39.6019 44.367 32.5662 55.2012" fill="url(#paint6_linear)"/>
<path d="M27.8165 24.9331C13.6838 29.3538 11.0133 37.9303 11.0133 37.9303C11.0133 37.9303 23.6693 15.8399 65.9037 31.8294C65.9037 31.8294 42.894 20.2174 27.8165 24.9331" fill="url(#paint7_linear)"/>
<g opacity="0.350006">
<g opacity="0.350006">
<path opacity="0.350006" d="M11.0133 37.9303C11.0133 37.9303 20.7284 20.9768 51.5355 27.527C42.9659 24.7944 35.6021 24.1134 29.5116 24.4806C28.9372 24.6112 28.371 24.7597 27.8168 24.9333C13.6838 29.3538 11.0133 37.9303 11.0133 37.9303Z" fill="#FFC107"/>
</g>
</g>
<defs>
<linearGradient id="paint0_linear" x1="65.1362" y1="31.6447" x2="28.3378" y2="57.8305" gradientUnits="userSpaceOnUse">
<stop stop-color="#02A4FF"/>
<stop offset="1" stop-color="#003F8A"/>
</linearGradient>
<linearGradient id="paint1_linear" x1="78.9726" y1="35.0184" x2="76.655" y2="40.3298" gradientUnits="userSpaceOnUse">
<stop stop-color="#00A3FF"/>
<stop offset="0.999659" stop-color="#541085"/>
<stop offset="1" stop-color="#003F8A"/>
</linearGradient>
<linearGradient id="paint2_linear" x1="27.9451" y1="62.2717" x2="60.1093" y2="40.7837" gradientUnits="userSpaceOnUse">
<stop stop-color="#FFC737"/>
<stop offset="0.999659" stop-color="#E974FC"/>
<stop offset="1" stop-color="#E974FC"/>
</linearGradient>
<linearGradient id="paint3_linear" x1="76.7307" y1="45.3829" x2="86.2531" y2="47.3342" gradientUnits="userSpaceOnUse">
<stop offset="0.541667" stop-color="white"/>
<stop offset="0.999559" stop-color="white"/>
</linearGradient>
<linearGradient id="paint4_linear" x1="71.238" y1="48.7135" x2="74.6497" y2="43.2385" gradientUnits="userSpaceOnUse">
<stop stop-color="#02A4FF" stop-opacity="0.47"/>
<stop offset="0.999659" stop-color="#541085"/>
<stop offset="1" stop-color="#541085"/>
<stop offset="1" stop-color="#003F8A"/>
</linearGradient>
<linearGradient id="paint5_linear" x1="10.3769" y1="46.3126" x2="59.9722" y2="37.251" gradientUnits="userSpaceOnUse">
<stop stop-color="#FFC737"/>
<stop offset="0.999659" stop-color="#E974FC"/>
<stop offset="1" stop-color="#E974FC"/>
</linearGradient>
<linearGradient id="paint6_linear" x1="47.3027" y1="46.2027" x2="36.9004" y2="62.2876" gradientUnits="userSpaceOnUse">
<stop stop-color="#F9532C"/>
<stop offset="0.999659" stop-color="#FF9948"/>
<stop offset="1" stop-color="#FF9948"/>
</linearGradient>
<linearGradient id="paint7_linear" x1="48.9227" y1="27.9034" x2="20.6954" y2="33.6394" gradientUnits="userSpaceOnUse">
<stop stop-color="#F9532C"/>
<stop offset="0.999659" stop-color="#FF9948"/>
<stop offset="1" stop-color="#FF9948"/>
</linearGradient>
</defs>
</svg>
