<svg width="94" height="93" viewBox="0 0 94 93" fill="none" xmlns="http://www.w3.org/2000/svg">
<path d="M80.937 29.0139L79.8803 28.3724L74.0902 37.901L73.0377 37.2163C65.653 33.23 54.8489 27.5492 36.2737 28.0238C10.5482 28.6797 5.63486 47.749 10.4598 58.0375C10.4598 58.0375 7.26896 44.4148 20.6124 36.0204C32.4365 28.5856 54.143 30.7276 69.9206 37.5441C69.925 37.5469 69.9359 37.5479 69.9439 37.5529C70.062 37.6095 70.1118 37.7486 70.0553 37.8671C70.0036 37.9771 69.8751 38.0278 69.7644 37.9872C69.7602 37.9846 69.7498 37.9835 69.7415 37.9783C64.2706 36.0941 58.5511 35.0105 52.8243 34.5598C58.5283 35.2754 64.1581 36.6213 69.4644 38.7332C69.471 38.7319 69.4749 38.7344 69.479 38.7369L69.4912 38.7445C69.623 38.7982 69.6876 38.9407 69.638 39.0751C69.5913 39.2051 69.4462 39.2739 69.3177 39.2333C69.3112 39.2351 69.3068 39.2323 69.3029 39.2299L69.2988 39.2273C61.5622 36.7331 46.3908 34.1291 30.4634 42.5976C6.64322 55.261 18.7857 74.3481 34.0337 71.3335C34.0337 71.3335 22.8669 64.375 30.5173 53.9238C37.476 44.4185 55.7166 36.6465 71.5899 42.0146L66.1303 51.0038L67.1848 51.6494C67.979 52.1273 68.9875 52.0616 69.7073 51.4807L76.9976 45.6065L79.8433 47.7043C82.3318 49.5452 85.4963 49.9353 86.5203 48.292C87.4651 46.7758 86.0562 44.3899 83.6795 42.9089C83.4788 42.7838 83.2687 42.6645 83.0534 42.5529L80.0009 40.9695L81.9512 31.33C82.1309 30.4262 81.7353 29.511 80.9563 29.026C80.9497 29.0219 80.9432 29.0178 80.937 29.0139Z" fill="url(#paint0_linear)"/>
<path d="M80.9364 29.0146L79.8798 28.3731L74.0897 37.9017C74.0897 37.9017 76.8734 39.1808 80.0004 40.9702L81.9506 31.3307C82.1304 30.4269 81.7346 29.512 80.9557 29.0267C80.9492 29.0226 80.9427 29.0185 80.9364 29.0146" fill="url(#paint1_linear)"/>
<path d="M30.4709 47.4801C22.2861 53.2986 20.3682 61.538 25.3048 70.6351C27.8928 71.6376 30.8972 71.9544 34.0339 71.3341C34.0339 71.3341 22.8671 64.3757 30.5174 53.9244C37.4761 44.4191 55.7167 36.6471 71.5901 42.0152C71.5901 42.0152 51.5784 32.475 30.4709 47.4801" fill="url(#paint2_linear)"/>
<path d="M71.5889 42.0146C71.7101 42.0848 71.8184 42.1577 71.917 42.2364C71.9336 42.2467 71.9512 42.2635 71.9717 42.2763C72.9162 42.9159 75.4006 44.5894 76.9965 45.6066L79.8423 47.7043C82.3308 49.5452 85.4953 49.9353 86.5193 48.292C87.1347 47.3044 86.746 45.9475 85.7476 44.7103C85.7595 49.4115 74.8744 43.8175 71.5889 42.0146" fill="url(#paint3_linear)"/>
<path d="M66.1295 51.0041L67.1841 51.6497C67.9783 52.1277 68.9868 52.0619 69.7066 51.481L76.9968 45.6069C74.9931 44.3278 71.5892 42.0149 71.5892 42.0149L66.1295 51.0041Z" fill="url(#paint4_linear)"/>
<path d="M69.9406 37.5517C69.9435 37.5531 69.9449 37.554 69.9449 37.554C69.9435 37.5531 69.9418 37.5524 69.9406 37.5517ZM36.2314 30.0348C20.344 31.7362 15.7049 37.2981 11.3258 44.6676C9.13288 48.3581 9.47704 53.5575 10.3668 57.8296C10.3985 57.8992 10.4286 57.9699 10.4608 58.0386C10.4608 58.0386 7.26996 44.4159 20.6134 36.0215C32.4375 28.5867 54.144 30.7287 69.9216 37.5452C69.9251 37.5474 69.9333 37.5488 69.9406 37.5517C69.625 37.3893 51.9758 28.3487 36.2314 30.0348" fill="url(#paint5_linear)"/>
<path d="M32.5662 55.2017C25.5305 66.0359 35.6847 71.6523 41.0817 69.6108C41.0817 69.6108 32.8565 63.8951 39.4108 54.489C45.9648 45.0827 54.7285 42.8417 54.7285 42.8417C54.7285 42.8417 39.6019 44.3675 32.5662 55.2017" fill="url(#paint6_linear)"/>
<path d="M27.8165 24.9331C13.6838 29.3538 11.0133 37.9303 11.0133 37.9303C11.0133 37.9303 23.6693 15.8399 65.9037 31.8294C65.9037 31.8294 42.894 20.2174 27.8165 24.9331" fill="url(#paint7_linear)"/>
<g opacity="0.350006">
<g opacity="0.350006">
<path opacity="0.350006" d="M11.0133 37.9303C11.0133 37.9303 20.7284 20.9768 51.5355 27.527C42.9659 24.7944 35.6021 24.1134 29.5116 24.4806C28.9372 24.6112 28.371 24.7597 27.8168 24.9333C13.6838 29.3538 11.0133 37.9303 11.0133 37.9303Z" fill="#FFC107"/>
</g>
</g>
<defs>
<linearGradient id="paint0_linear" x1="65.1362" y1="31.6447" x2="28.3378" y2="57.8305" gradientUnits="userSpaceOnUse">
<stop stop-color="#02A4FF"/>
<stop offset="1" stop-color="#003F8A"/>
</linearGradient>
<linearGradient id="paint1_linear" x1="78.9726" y1="35.0188" x2="76.655" y2="40.3303" gradientUnits="userSpaceOnUse">
<stop stop-color="#00A3FF"/>
<stop offset="0.999659" stop-color="#541085"/>
<stop offset="1" stop-color="#003F8A"/>
</linearGradient>
<linearGradient id="paint2_linear" x1="27.9451" y1="62.2717" x2="60.1093" y2="40.7837" gradientUnits="userSpaceOnUse">
<stop stop-color="#FFC737"/>
<stop offset="0.999659" stop-color="#E974FC"/>
<stop offset="1" stop-color="#E974FC"/>
</linearGradient>
<linearGradient id="paint3_linear" x1="76.7307" y1="45.3824" x2="86.2531" y2="47.3337" gradientUnits="userSpaceOnUse">
<stop offset="0.541667" stop-color="white"/>
<stop offset="0.999559" stop-color="white"/>
</linearGradient>
<linearGradient id="paint4_linear" x1="71.238" y1="48.7135" x2="74.6497" y2="43.2385" gradientUnits="userSpaceOnUse">
<stop stop-color="#02A4FF" stop-opacity="0.47"/>
<stop offset="0.999659" stop-color="#541085"/>
<stop offset="1" stop-color="#541085"/>
<stop offset="1" stop-color="#003F8A"/>
</linearGradient>
<linearGradient id="paint5_linear" x1="10.3769" y1="46.3126" x2="59.9722" y2="37.251" gradientUnits="userSpaceOnUse">
<stop stop-color="#FFC737"/>
<stop offset="0.999659" stop-color="#E974FC"/>
<stop offset="1" stop-color="#E974FC"/>
</linearGradient>
<linearGradient id="paint6_linear" x1="47.3027" y1="46.2032" x2="36.9004" y2="62.2881" gradientUnits="userSpaceOnUse">
<stop stop-color="#F9532C"/>
<stop offset="0.999659" stop-color="#FF9948"/>
<stop offset="1" stop-color="#FF9948"/>
</linearGradient>
<linearGradient id="paint7_linear" x1="48.9227" y1="27.9034" x2="20.6954" y2="33.6394" gradientUnits="userSpaceOnUse">
<stop stop-color="#F9532C"/>
<stop offset="0.999659" stop-color="#FF9948"/>
<stop offset="1" stop-color="#FF9948"/>
</linearGradient>
</defs>
</svg>
