<svg width="151" height="93" viewBox="0 0 151 93" fill="none" xmlns="http://www.w3.org/2000/svg">
<path d="M57.335 48.7C57.3984 48.7 57.449 48.7253 57.487 48.776C57.5377 48.814 57.563 48.8647 57.563 48.928V50.79C57.563 50.8533 57.5377 50.9103 57.487 50.961C57.449 50.999 57.3984 51.018 57.335 51.018H53.934C53.8707 51.018 53.839 51.0497 53.839 51.113V61.772C53.839 61.8353 53.8137 61.8923 53.763 61.943C53.725 61.981 53.6744 62 53.611 62H51.388C51.3247 62 51.2677 61.981 51.217 61.943C51.179 61.8923 51.16 61.8353 51.16 61.772V51.113C51.16 51.0497 51.1284 51.018 51.065 51.018H47.759C47.6957 51.018 47.6387 50.999 47.588 50.961C47.55 50.9103 47.531 50.8533 47.531 50.79V48.928C47.531 48.8647 47.55 48.814 47.588 48.776C47.6387 48.7253 47.6957 48.7 47.759 48.7H57.335ZM66.5683 62C66.4416 62 66.3529 61.943 66.3023 61.829L63.9273 56.566C63.9019 56.5153 63.8639 56.49 63.8133 56.49H62.0463C61.9829 56.49 61.9513 56.5217 61.9513 56.585V61.772C61.9513 61.8353 61.9259 61.8923 61.8753 61.943C61.8373 61.981 61.7866 62 61.7233 62H59.5003C59.4369 62 59.3799 61.981 59.3293 61.943C59.2913 61.8923 59.2723 61.8353 59.2723 61.772V48.928C59.2723 48.8647 59.2913 48.814 59.3293 48.776C59.3799 48.7253 59.4369 48.7 59.5003 48.7H64.9343C65.7449 48.7 66.4543 48.8647 67.0623 49.194C67.6829 49.5233 68.1579 49.992 68.4873 50.6C68.8293 51.208 69.0003 51.911 69.0003 52.709C69.0003 53.5703 68.7849 54.3113 68.3543 54.932C67.9236 55.54 67.3219 55.9707 66.5493 56.224C66.4859 56.2493 66.4669 56.2937 66.4923 56.357L69.0763 61.734C69.1016 61.7847 69.1143 61.8227 69.1143 61.848C69.1143 61.9493 69.0446 62 68.9053 62H66.5683ZM62.0463 50.999C61.9829 50.999 61.9513 51.0307 61.9513 51.094V54.343C61.9513 54.4063 61.9829 54.438 62.0463 54.438H64.5353C65.0673 54.438 65.4979 54.2797 65.8273 53.963C66.1693 53.6463 66.3403 53.2347 66.3403 52.728C66.3403 52.2213 66.1693 51.8097 65.8273 51.493C65.4979 51.1637 65.0673 50.999 64.5353 50.999H62.0463ZM79.6765 62C79.5498 62 79.4675 61.9367 79.4295 61.81L78.8595 59.948C78.8342 59.8973 78.8025 59.872 78.7645 59.872H74.0905C74.0525 59.872 74.0208 59.8973 73.9955 59.948L73.4445 61.81C73.4065 61.9367 73.3242 62 73.1975 62H70.7845C70.7085 62 70.6515 61.981 70.6135 61.943C70.5755 61.8923 70.5692 61.8227 70.5945 61.734L74.6985 48.89C74.7365 48.7633 74.8188 48.7 74.9455 48.7H77.9285C78.0552 48.7 78.1375 48.7633 78.1755 48.89L82.2795 61.734C82.2922 61.7593 82.2985 61.791 82.2985 61.829C82.2985 61.943 82.2288 62 82.0895 62H79.6765ZM74.6795 57.687C74.6668 57.763 74.6922 57.801 74.7555 57.801H78.0995C78.1755 57.801 78.2008 57.763 78.1755 57.687L76.4655 52.044C76.4528 51.9933 76.4338 51.9743 76.4085 51.987C76.3832 51.987 76.3642 52.006 76.3515 52.044L74.6795 57.687ZM87.15 62C87.0234 62 86.941 61.9367 86.903 61.81L82.989 48.966L82.97 48.89C82.97 48.7633 83.0397 48.7 83.179 48.7H85.573C85.7124 48.7 85.801 48.7633 85.839 48.89L88.366 58.162C88.3787 58.2 88.3977 58.219 88.423 58.219C88.4484 58.219 88.4674 58.2 88.48 58.162L90.969 48.89C91.007 48.7633 91.0957 48.7 91.235 48.7H93.572C93.648 48.7 93.705 48.7253 93.743 48.776C93.781 48.8267 93.7874 48.89 93.762 48.966L89.791 61.81C89.753 61.9367 89.6707 62 89.544 62H87.15ZM104.558 50.771C104.558 50.8343 104.533 50.8913 104.482 50.942C104.444 50.98 104.393 50.999 104.33 50.999H98.098C98.0347 50.999 98.003 51.0307 98.003 51.094V54.039C98.003 54.1023 98.0347 54.134 98.098 54.134H102.183C102.246 54.134 102.297 54.1593 102.335 54.21C102.386 54.248 102.411 54.2987 102.411 54.362V56.205C102.411 56.2683 102.386 56.3253 102.335 56.376C102.297 56.414 102.246 56.433 102.183 56.433H98.098C98.0347 56.433 98.003 56.4647 98.003 56.528V59.606C98.003 59.6693 98.0347 59.701 98.098 59.701H104.33C104.393 59.701 104.444 59.7263 104.482 59.777C104.533 59.815 104.558 59.8657 104.558 59.929V61.772C104.558 61.8353 104.533 61.8923 104.482 61.943C104.444 61.981 104.393 62 104.33 62H95.552C95.4887 62 95.4317 61.981 95.381 61.943C95.343 61.8923 95.324 61.8353 95.324 61.772V48.928C95.324 48.8647 95.343 48.814 95.381 48.776C95.4317 48.7253 95.4887 48.7 95.552 48.7H104.33C104.393 48.7 104.444 48.7253 104.482 48.776C104.533 48.814 104.558 48.8647 104.558 48.928V50.771ZM106.648 62C106.584 62 106.527 61.981 106.477 61.943C106.439 61.8923 106.42 61.8353 106.42 61.772V48.928C106.42 48.8647 106.439 48.814 106.477 48.776C106.527 48.7253 106.584 48.7 106.648 48.7H108.871C108.934 48.7 108.985 48.7253 109.023 48.776C109.073 48.814 109.099 48.8647 109.099 48.928V59.606C109.099 59.6693 109.13 59.701 109.194 59.701H115.407C115.47 59.701 115.521 59.7263 115.559 59.777C115.609 59.815 115.635 59.8657 115.635 59.929V61.772C115.635 61.8353 115.609 61.8923 115.559 61.943C115.521 61.981 115.47 62 115.407 62H106.648ZM118.604 62.076C118.173 62.076 117.812 61.9367 117.521 61.658C117.242 61.3667 117.103 61.0057 117.103 60.575C117.103 60.1317 117.242 59.7707 117.521 59.492C117.799 59.2133 118.16 59.074 118.604 59.074C119.047 59.074 119.408 59.2133 119.687 59.492C119.965 59.7707 120.105 60.1317 120.105 60.575C120.105 61.0057 119.959 61.3667 119.668 61.658C119.389 61.9367 119.034 62.076 118.604 62.076ZM127.088 62.152C126.113 62.152 125.251 61.9557 124.504 61.563C123.757 61.1703 123.174 60.6257 122.756 59.929C122.351 59.2197 122.148 58.4027 122.148 57.478V53.222C122.148 52.2973 122.351 51.4803 122.756 50.771C123.174 50.0617 123.757 49.517 124.504 49.137C125.251 48.7443 126.113 48.548 127.088 48.548C128.051 48.548 128.899 48.738 129.634 49.118C130.381 49.498 130.958 50.0173 131.363 50.676C131.781 51.322 131.99 52.044 131.99 52.842V52.975C131.99 53.0383 131.965 53.0953 131.914 53.146C131.876 53.184 131.825 53.203 131.762 53.203H129.539C129.476 53.203 129.419 53.184 129.368 53.146C129.33 53.0953 129.311 53.0383 129.311 52.975V52.918C129.311 52.3353 129.108 51.8477 128.703 51.455C128.298 51.0497 127.759 50.847 127.088 50.847C126.404 50.847 125.853 51.0623 125.435 51.493C125.03 51.911 124.827 52.462 124.827 53.146V57.554C124.827 58.238 125.049 58.7953 125.492 59.226C125.935 59.644 126.499 59.853 127.183 59.853C127.842 59.853 128.367 59.682 128.76 59.34C129.153 58.9853 129.349 58.4977 129.349 57.877V57.022C129.349 56.9587 129.317 56.927 129.254 56.927H127.126C127.063 56.927 127.006 56.908 126.955 56.87C126.917 56.8193 126.898 56.7623 126.898 56.699V54.951C126.898 54.8877 126.917 54.837 126.955 54.799C127.006 54.7483 127.063 54.723 127.126 54.723H131.762C131.825 54.723 131.876 54.7483 131.914 54.799C131.965 54.837 131.99 54.8877 131.99 54.951V57.459C131.99 58.4217 131.787 59.2577 131.382 59.967C130.977 60.6763 130.4 61.221 129.653 61.601C128.918 61.9683 128.063 62.152 127.088 62.152ZM138.779 62.209C137.791 62.209 136.917 62.0063 136.157 61.601C135.409 61.1957 134.827 60.632 134.409 59.91C133.991 59.1753 133.782 58.333 133.782 57.383V53.317C133.782 52.3797 133.991 51.55 134.409 50.828C134.827 50.106 135.409 49.5487 136.157 49.156C136.917 48.7507 137.791 48.548 138.779 48.548C139.779 48.548 140.653 48.7507 141.401 49.156C142.161 49.5487 142.75 50.106 143.168 50.828C143.586 51.55 143.795 52.3797 143.795 53.317V57.383C143.795 58.333 143.586 59.1753 143.168 59.91C142.75 60.6447 142.161 61.2147 141.401 61.62C140.653 62.0127 139.779 62.209 138.779 62.209ZM138.779 59.91C139.475 59.91 140.039 59.6883 140.47 59.245C140.9 58.8017 141.116 58.2127 141.116 57.478V53.298C141.116 52.5633 140.9 51.9743 140.47 51.531C140.052 51.075 139.488 50.847 138.779 50.847C138.082 50.847 137.518 51.075 137.088 51.531C136.67 51.9743 136.461 52.5633 136.461 53.298V57.478C136.461 58.2127 136.67 58.8017 137.088 59.245C137.518 59.6883 138.082 59.91 138.779 59.91Z" fill="#FFC107"/>
<path d="M58.4679 78C58.3879 78 58.3329 77.96 58.3029 77.88L55.4229 67.665L55.4079 67.62C55.4079 67.54 55.4579 67.5 55.5579 67.5H56.3529C56.4429 67.5 56.4979 67.54 56.5179 67.62L58.7979 75.84C58.8079 75.86 58.8179 75.87 58.8279 75.87C58.8479 75.87 58.8629 75.86 58.8729 75.84L60.9879 67.635C61.0079 67.545 61.0629 67.5 61.1529 67.5H61.9629C62.0529 67.5 62.1079 67.545 62.1279 67.635L64.3329 75.84C64.3429 75.86 64.3529 75.87 64.3629 75.87C64.3829 75.87 64.3979 75.86 64.4079 75.84L66.6879 67.62C66.7079 67.54 66.7629 67.5 66.8529 67.5H67.6179C67.6679 67.5 67.7029 67.515 67.7229 67.545C67.7529 67.575 67.7629 67.615 67.7529 67.665L64.9179 77.88C64.8979 77.96 64.8429 78 64.7529 78H63.9579C63.8679 78 63.8129 77.955 63.7929 77.865L61.6029 69.465C61.5929 69.445 61.5779 69.435 61.5579 69.435C61.5479 69.435 61.5379 69.445 61.5279 69.465L59.3829 77.865C59.3729 77.955 59.3179 78 59.2179 78H58.4679ZM74.4595 72.93C74.4995 73.21 74.5195 73.56 74.5195 73.98V74.46C74.5195 74.56 74.4695 74.61 74.3695 74.61H69.5245C69.4845 74.61 69.4645 74.63 69.4645 74.67C69.4845 75.22 69.5145 75.575 69.5545 75.735C69.6645 76.185 69.8995 76.54 70.2595 76.8C70.6195 77.06 71.0795 77.19 71.6395 77.19C72.0595 77.19 72.4295 77.095 72.7495 76.905C73.0695 76.715 73.3195 76.445 73.4995 76.095C73.5595 76.005 73.6295 75.985 73.7095 76.035L74.2945 76.38C74.3745 76.43 74.3945 76.5 74.3545 76.59C74.1045 77.07 73.7295 77.45 73.2295 77.73C72.7295 78 72.1545 78.135 71.5045 78.135C70.7945 78.125 70.1995 77.955 69.7195 77.625C69.2395 77.295 68.8945 76.835 68.6845 76.245C68.5045 75.765 68.4145 75.075 68.4145 74.175C68.4145 73.755 68.4195 73.415 68.4295 73.155C68.4495 72.885 68.4895 72.645 68.5495 72.435C68.7195 71.785 69.0595 71.265 69.5695 70.875C70.0895 70.485 70.7145 70.29 71.4445 70.29C72.3545 70.29 73.0545 70.52 73.5445 70.98C74.0345 71.44 74.3395 72.09 74.4595 72.93ZM71.4445 71.22C70.9545 71.22 70.5445 71.35 70.2145 71.61C69.8945 71.86 69.6845 72.2 69.5845 72.63C69.5245 72.84 69.4845 73.18 69.4645 73.65C69.4645 73.69 69.4845 73.71 69.5245 73.71H73.4095C73.4495 73.71 73.4695 73.69 73.4695 73.65C73.4495 73.2 73.4195 72.88 73.3795 72.69C73.2695 72.24 73.0445 71.885 72.7045 71.625C72.3745 71.355 71.9545 71.22 71.4445 71.22ZM76.7875 78C76.6875 78 76.6375 77.95 76.6375 77.85V67.65C76.6375 67.55 76.6875 67.5 76.7875 67.5H77.5525C77.6525 67.5 77.7025 67.55 77.7025 67.65V77.85C77.7025 77.95 77.6525 78 77.5525 78H76.7875ZM82.9595 78.12C82.2395 78.12 81.6195 77.935 81.0995 77.565C80.5895 77.185 80.2395 76.675 80.0495 76.035C79.9195 75.595 79.8545 74.975 79.8545 74.175C79.8545 73.455 79.9195 72.845 80.0495 72.345C80.2295 71.725 80.5795 71.23 81.0995 70.86C81.6195 70.48 82.2395 70.29 82.9595 70.29C83.6895 70.29 84.3195 70.475 84.8495 70.845C85.3895 71.215 85.7395 71.675 85.8995 72.225C85.9495 72.405 85.9795 72.555 85.9895 72.675V72.705C85.9895 72.775 85.9445 72.82 85.8545 72.84L85.1045 72.945H85.0745C85.0045 72.945 84.9595 72.9 84.9395 72.81L84.8945 72.585C84.8045 72.205 84.5845 71.885 84.2345 71.625C83.8845 71.355 83.4595 71.22 82.9595 71.22C82.4595 71.22 82.0395 71.355 81.6995 71.625C81.3695 71.885 81.1545 72.235 81.0545 72.675C80.9645 73.055 80.9195 73.56 80.9195 74.19C80.9195 74.85 80.9645 75.36 81.0545 75.72C81.1545 76.17 81.3695 76.53 81.6995 76.8C82.0395 77.06 82.4595 77.19 82.9595 77.19C83.4495 77.19 83.8695 77.065 84.2195 76.815C84.5795 76.555 84.8045 76.225 84.8945 75.825V75.765L84.9095 75.705C84.9195 75.605 84.9795 75.565 85.0895 75.585L85.8245 75.705C85.9245 75.725 85.9695 75.78 85.9595 75.87L85.8995 76.17C85.7495 76.75 85.4045 77.22 84.8645 77.58C84.3245 77.94 83.6895 78.12 82.9595 78.12ZM90.7386 78.12C90.0186 78.12 89.3986 77.935 88.8786 77.565C88.3586 77.195 87.9986 76.685 87.7986 76.035C87.6586 75.575 87.5886 74.96 87.5886 74.19C87.5886 73.42 87.6586 72.81 87.7986 72.36C87.9886 71.72 88.3436 71.215 88.8636 70.845C89.3836 70.475 90.0136 70.29 90.7536 70.29C91.4636 70.29 92.0736 70.475 92.5836 70.845C93.1036 71.215 93.4586 71.715 93.6486 72.345C93.7886 72.775 93.8586 73.39 93.8586 74.19C93.8586 75 93.7886 75.615 93.6486 76.035C93.4586 76.685 93.1036 77.195 92.5836 77.565C92.0736 77.935 91.4586 78.12 90.7386 78.12ZM90.7386 77.19C91.2186 77.19 91.6286 77.06 91.9686 76.8C92.3086 76.53 92.5386 76.17 92.6586 75.72C92.7486 75.36 92.7936 74.855 92.7936 74.205C92.7936 73.545 92.7536 73.04 92.6736 72.69C92.5536 72.24 92.3186 71.885 91.9686 71.625C91.6286 71.355 91.2136 71.22 90.7236 71.22C90.2336 71.22 89.8186 71.355 89.4786 71.625C89.1386 71.885 88.9086 72.24 88.7886 72.69C88.7086 73.04 88.6686 73.545 88.6686 74.205C88.6686 74.865 88.7086 75.37 88.7886 75.72C88.8986 76.17 89.1236 76.53 89.4636 76.8C89.8136 77.06 90.2386 77.19 90.7386 77.19ZM103.697 70.305C104.447 70.305 105.037 70.53 105.467 70.98C105.907 71.43 106.127 72.045 106.127 72.825V77.85C106.127 77.95 106.077 78 105.977 78H105.227C105.127 78 105.077 77.95 105.077 77.85V73.035C105.077 72.485 104.917 72.05 104.597 71.73C104.287 71.4 103.877 71.235 103.367 71.235C102.837 71.235 102.407 71.395 102.077 71.715C101.757 72.035 101.597 72.465 101.597 73.005V77.85C101.597 77.95 101.547 78 101.447 78H100.682C100.582 78 100.532 77.95 100.532 77.85V73.035C100.532 72.485 100.377 72.05 100.067 71.73C99.7574 71.4 99.3424 71.235 98.8224 71.235C98.2924 71.235 97.8674 71.395 97.5474 71.715C97.2374 72.035 97.0824 72.465 97.0824 73.005V77.85C97.0824 77.95 97.0324 78 96.9324 78H96.1674C96.0674 78 96.0174 77.95 96.0174 77.85V70.56C96.0174 70.46 96.0674 70.41 96.1674 70.41H96.9324C97.0324 70.41 97.0824 70.46 97.0824 70.56V71.16C97.0824 71.18 97.0874 71.195 97.0974 71.205C97.1174 71.205 97.1374 71.195 97.1574 71.175C97.3774 70.885 97.6574 70.67 97.9974 70.53C98.3474 70.38 98.7324 70.305 99.1524 70.305C99.6724 70.305 100.117 70.41 100.487 70.62C100.857 70.83 101.137 71.135 101.327 71.535C101.347 71.585 101.372 71.585 101.402 71.535C101.622 71.125 101.932 70.82 102.332 70.62C102.732 70.41 103.187 70.305 103.697 70.305ZM114.142 72.93C114.182 73.21 114.202 73.56 114.202 73.98V74.46C114.202 74.56 114.152 74.61 114.052 74.61H109.207C109.167 74.61 109.147 74.63 109.147 74.67C109.167 75.22 109.197 75.575 109.237 75.735C109.347 76.185 109.582 76.54 109.942 76.8C110.302 77.06 110.762 77.19 111.322 77.19C111.742 77.19 112.112 77.095 112.432 76.905C112.752 76.715 113.002 76.445 113.182 76.095C113.242 76.005 113.312 75.985 113.392 76.035L113.977 76.38C114.057 76.43 114.077 76.5 114.037 76.59C113.787 77.07 113.412 77.45 112.912 77.73C112.412 78 111.837 78.135 111.187 78.135C110.477 78.125 109.882 77.955 109.402 77.625C108.922 77.295 108.577 76.835 108.367 76.245C108.187 75.765 108.097 75.075 108.097 74.175C108.097 73.755 108.102 73.415 108.112 73.155C108.132 72.885 108.172 72.645 108.232 72.435C108.402 71.785 108.742 71.265 109.252 70.875C109.772 70.485 110.397 70.29 111.127 70.29C112.037 70.29 112.737 70.52 113.227 70.98C113.717 71.44 114.022 72.09 114.142 72.93ZM111.127 71.22C110.637 71.22 110.227 71.35 109.897 71.61C109.577 71.86 109.367 72.2 109.267 72.63C109.207 72.84 109.167 73.18 109.147 73.65C109.147 73.69 109.167 73.71 109.207 73.71H113.092C113.132 73.71 113.152 73.69 113.152 73.65C113.132 73.2 113.102 72.88 113.062 72.69C112.952 72.24 112.727 71.885 112.387 71.625C112.057 71.355 111.637 71.22 111.127 71.22Z" fill="#FFC107"/>
<path d="M80.937 29.0139L79.8803 28.3724L74.0902 37.901L73.0377 37.2163C65.653 33.23 54.8489 27.5492 36.2737 28.0238C10.5482 28.6797 5.63486 47.749 10.4598 58.0375C10.4598 58.0375 7.26896 44.4148 20.6124 36.0204C32.4365 28.5856 54.143 30.7276 69.9206 37.5441C69.925 37.5469 69.9359 37.5479 69.9439 37.5529C70.062 37.6095 70.1118 37.7486 70.0553 37.8671C70.0036 37.9771 69.8751 38.0278 69.7644 37.9872C69.7602 37.9846 69.7498 37.9835 69.7415 37.9783C64.2706 36.0941 58.5511 35.0105 52.8243 34.5598C58.5283 35.2754 64.1581 36.6213 69.4644 38.7332C69.471 38.7319 69.4749 38.7344 69.479 38.7369L69.4912 38.7445C69.623 38.7982 69.6876 38.9407 69.638 39.0751C69.5913 39.2051 69.4462 39.2739 69.3177 39.2333C69.3112 39.2351 69.3068 39.2323 69.3029 39.2299L69.2988 39.2273C61.5622 36.7331 46.3908 34.1291 30.4634 42.5976C6.64322 55.261 18.7857 74.3481 34.0337 71.3335C34.0337 71.3335 22.8669 64.375 30.5173 53.9238C37.476 44.4185 55.7166 36.6465 71.5899 42.0146L66.1303 51.0038L67.1848 51.6494C67.979 52.1273 68.9875 52.0616 69.7073 51.4807L76.9976 45.6065L79.8433 47.7043C82.3318 49.5452 85.4963 49.9353 86.5203 48.292C87.4651 46.7758 86.0562 44.3899 83.6795 42.9089C83.4788 42.7838 83.2687 42.6645 83.0534 42.5529L80.0009 40.9695L81.9512 31.33C82.1309 30.4262 81.7353 29.511 80.9563 29.026C80.9497 29.0219 80.9432 29.0178 80.937 29.0139Z" fill="url(#paint0_linear)"/>
<path d="M80.9364 29.0146L79.8798 28.3731L74.0897 37.9017C74.0897 37.9017 76.8734 39.1808 80.0004 40.9702L81.9506 31.3307C82.1304 30.4269 81.7346 29.512 80.9557 29.0267C80.9492 29.0226 80.9427 29.0185 80.9364 29.0146" fill="url(#paint1_linear)"/>
<path d="M30.4709 47.4801C22.2861 53.2986 20.3682 61.538 25.3048 70.6351C27.8928 71.6376 30.8972 71.9544 34.0339 71.3341C34.0339 71.3341 22.8671 64.3757 30.5174 53.9244C37.4761 44.4191 55.7167 36.6471 71.5901 42.0152C71.5901 42.0152 51.5784 32.475 30.4709 47.4801" fill="url(#paint2_linear)"/>
<path d="M71.5889 42.0151C71.7101 42.0853 71.8184 42.1582 71.917 42.2369C71.9336 42.2472 71.9512 42.264 71.9717 42.2767C72.9162 42.9164 75.4006 44.5899 76.9965 45.607L79.8423 47.7048C82.3308 49.5457 85.4953 49.9358 86.5193 48.2925C87.1347 47.3049 86.746 45.948 85.7476 44.7108C85.7595 49.412 74.8744 43.818 71.5889 42.0151" fill="url(#paint3_linear)"/>
<path d="M66.1295 51.0041L67.1841 51.6497C67.9783 52.1277 68.9868 52.0619 69.7066 51.481L76.9968 45.6069C74.9931 44.3278 71.5892 42.0149 71.5892 42.0149L66.1295 51.0041Z" fill="url(#paint4_linear)"/>
<path d="M69.9406 37.5517C69.9435 37.5531 69.9449 37.554 69.9449 37.554C69.9435 37.5531 69.9418 37.5524 69.9406 37.5517ZM36.2314 30.0348C20.344 31.7362 15.7049 37.2981 11.3258 44.6676C9.13288 48.3581 9.47704 53.5575 10.3668 57.8296C10.3985 57.8992 10.4286 57.9699 10.4608 58.0386C10.4608 58.0386 7.26996 44.4159 20.6134 36.0215C32.4375 28.5867 54.144 30.7287 69.9216 37.5452C69.9251 37.5474 69.9333 37.5488 69.9406 37.5517C69.625 37.3893 51.9758 28.3487 36.2314 30.0348" fill="url(#paint5_linear)"/>
<path d="M32.5662 55.2012C25.5305 66.0354 35.6847 71.6518 41.0817 69.6104C41.0817 69.6104 32.8565 63.8946 39.4108 54.4885C45.9648 45.0822 54.7285 42.8412 54.7285 42.8412C54.7285 42.8412 39.6019 44.367 32.5662 55.2012" fill="url(#paint6_linear)"/>
<path d="M27.8165 24.9331C13.6838 29.3538 11.0133 37.9303 11.0133 37.9303C11.0133 37.9303 23.6693 15.8399 65.9037 31.8294C65.9037 31.8294 42.894 20.2174 27.8165 24.9331" fill="url(#paint7_linear)"/>
<g opacity="0.350006">
<g opacity="0.350006">
<path opacity="0.350006" d="M11.0133 37.9303C11.0133 37.9303 20.7284 20.9768 51.5355 27.527C42.9659 24.7944 35.6021 24.1134 29.5116 24.4806C28.9372 24.6112 28.371 24.7597 27.8168 24.9333C13.6838 29.3538 11.0133 37.9303 11.0133 37.9303Z" fill="#FFC107"/>
</g>
</g>
<defs>
<linearGradient id="paint0_linear" x1="65.1362" y1="31.6447" x2="28.3378" y2="57.8305" gradientUnits="userSpaceOnUse">
<stop stop-color="#02A4FF"/>
<stop offset="1" stop-color="#003F8A"/>
</linearGradient>
<linearGradient id="paint1_linear" x1="78.9726" y1="35.0188" x2="76.655" y2="40.3303" gradientUnits="userSpaceOnUse">
<stop stop-color="#00A3FF"/>
<stop offset="0.999659" stop-color="#541085"/>
<stop offset="1" stop-color="#003F8A"/>
</linearGradient>
<linearGradient id="paint2_linear" x1="27.9451" y1="62.2717" x2="60.1093" y2="40.7837" gradientUnits="userSpaceOnUse">
<stop stop-color="#FFC737"/>
<stop offset="0.999659" stop-color="#E974FC"/>
<stop offset="1" stop-color="#E974FC"/>
</linearGradient>
<linearGradient id="paint3_linear" x1="76.7307" y1="45.3829" x2="86.2531" y2="47.3342" gradientUnits="userSpaceOnUse">
<stop offset="0.541667" stop-color="white"/>
<stop offset="0.999559" stop-color="white"/>
</linearGradient>
<linearGradient id="paint4_linear" x1="71.238" y1="48.7135" x2="74.6497" y2="43.2385" gradientUnits="userSpaceOnUse">
<stop stop-color="#02A4FF" stop-opacity="0.47"/>
<stop offset="0.999659" stop-color="#541085"/>
<stop offset="1" stop-color="#541085"/>
<stop offset="1" stop-color="#003F8A"/>
</linearGradient>
<linearGradient id="paint5_linear" x1="10.3769" y1="46.3126" x2="59.9722" y2="37.251" gradientUnits="userSpaceOnUse">
<stop stop-color="#FFC737"/>
<stop offset="0.999659" stop-color="#E974FC"/>
<stop offset="1" stop-color="#E974FC"/>
</linearGradient>
<linearGradient id="paint6_linear" x1="47.3027" y1="46.2027" x2="36.9004" y2="62.2876" gradientUnits="userSpaceOnUse">
<stop stop-color="#F9532C"/>
<stop offset="0.999659" stop-color="#FF9948"/>
<stop offset="1" stop-color="#FF9948"/>
</linearGradient>
<linearGradient id="paint7_linear" x1="48.9227" y1="27.9034" x2="20.6954" y2="33.6394" gradientUnits="userSpaceOnUse">
<stop stop-color="#F9532C"/>
<stop offset="0.999659" stop-color="#FF9948"/>
<stop offset="1" stop-color="#FF9948"/>
</linearGradient>
</defs>
</svg>
