<svg width="109" height="107" viewBox="0 0 109 107" fill="none" xmlns="http://www.w3.org/2000/svg">
<path d="M94.0536 33.7155L92.8257 32.97L86.0974 44.0428L84.8743 43.2471C76.2928 38.6149 63.7378 32.0134 42.1524 32.565C12.2579 33.3272 6.54831 55.4867 12.1552 67.4426C12.1552 67.4426 8.44723 51.6122 23.953 41.8575C37.6933 33.2178 62.9175 35.7069 81.252 43.6281C81.2571 43.6313 81.2698 43.6325 81.2791 43.6383C81.4163 43.7041 81.4742 43.8657 81.4085 44.0034C81.3484 44.1313 81.1992 44.1902 81.0705 44.143C81.0656 44.14 81.0535 44.1387 81.0439 44.1327C74.6864 41.9431 68.04 40.6839 61.3852 40.1601C68.0135 40.9917 74.5557 42.5558 80.7219 45.0099C80.7295 45.0084 80.734 45.0112 80.7389 45.0142L80.753 45.023C80.9062 45.0855 80.9812 45.251 80.9237 45.4072C80.8693 45.5583 80.7007 45.6381 80.5514 45.5911C80.5439 45.5931 80.5387 45.5899 80.5342 45.5871L80.5294 45.5841C71.5391 42.6856 53.9091 39.6596 35.4005 49.5006C7.72009 64.2161 21.8303 86.3964 39.5494 82.8933C39.5494 82.8933 26.5729 74.8071 35.4631 62.6622C43.5495 51.6165 64.7461 42.585 83.1919 48.8231L76.8474 59.269L78.0729 60.0192C78.9958 60.5746 80.1677 60.4982 81.0042 59.8232L89.4759 52.9971L92.7828 55.4348C95.6745 57.574 99.3519 58.0274 100.542 56.1178C101.64 54.3559 100.003 51.5833 97.2407 49.8623C97.0074 49.7169 96.7633 49.5782 96.513 49.4486L92.9659 47.6086L95.2322 36.4069C95.4411 35.3567 94.9814 34.2932 94.0761 33.7295C94.0685 33.7248 94.0609 33.7201 94.0536 33.7155Z" fill="url(#paint0_linear)"/>
<path d="M94.0535 33.7165L92.8255 32.971L86.0972 44.0438C86.0972 44.0438 89.332 45.5302 92.9657 47.6096L95.232 36.4079C95.4409 35.3577 94.981 34.2945 94.0759 33.7305C94.0683 33.7258 94.0607 33.721 94.0535 33.7165" fill="url(#paint1_linear)"/>
<path d="M35.4087 55.1744C25.8975 61.9358 23.6687 71.5106 29.4054 82.0819C32.4127 83.2469 35.9041 83.615 39.5491 82.8942C39.5491 82.8942 26.5726 74.808 35.4628 62.6631C43.5492 51.6174 64.7458 42.5859 83.1915 48.824C83.1915 48.824 59.9368 37.7376 35.4087 55.1744" fill="url(#paint2_linear)"/>
<path d="M83.1907 48.8233C83.3315 48.9048 83.4575 48.9895 83.572 49.081C83.5913 49.093 83.6117 49.1125 83.6355 49.1273C84.7331 49.8706 87.6201 51.8153 89.4747 52.9973L92.7816 55.435C95.6734 57.5742 99.3507 58.0276 100.541 56.118C101.256 54.9703 100.804 53.3935 99.6439 51.9558C99.6577 57.4189 87.0087 50.9183 83.1907 48.8233" fill="url(#paint3_linear)"/>
<path d="M76.8462 59.2698L78.0717 60.02C78.9946 60.5754 80.1666 60.499 81.003 59.824L89.4747 52.9979C87.1462 51.5115 83.1907 48.8239 83.1907 48.8239L76.8462 59.2698Z" fill="url(#paint4_linear)"/>
<path d="M81.275 43.6371C81.2784 43.6387 81.2801 43.6398 81.2801 43.6398C81.2784 43.6387 81.2764 43.638 81.275 43.6371ZM42.103 34.9021C23.641 36.8792 18.2501 43.3424 13.1613 51.9063C10.613 56.1948 11.0129 62.2368 12.0469 67.2012C12.0837 67.2821 12.1187 67.3642 12.1562 67.4441C12.1562 67.4441 8.44819 51.6137 23.954 41.859C37.6943 33.2193 62.9184 35.7084 81.2529 43.6296C81.2571 43.6322 81.2666 43.6338 81.275 43.6371C80.9083 43.4484 60.3989 32.9427 42.103 34.9021" fill="url(#paint5_linear)"/>
<path d="M37.8439 64.1471C29.668 76.7371 41.4678 83.2636 47.7394 80.8913C47.7394 80.8913 38.1813 74.2493 45.7977 63.3189C53.4139 52.3882 63.5978 49.7841 63.5978 49.7841C63.5978 49.7841 46.0198 51.5571 37.8439 64.1471" fill="url(#paint6_linear)"/>
<path d="M32.3244 28.9737C15.9014 34.1108 12.7981 44.0771 12.7981 44.0771C12.7981 44.0771 27.5051 18.4069 76.5839 36.9876C76.5839 36.9876 49.8453 23.4937 32.3244 28.9737" fill="url(#paint7_linear)"/>
<g opacity="0.350006">
<g opacity="0.350006">
<path opacity="0.350006" d="M12.7981 44.0771C12.7981 44.0771 24.0877 24.3762 59.8872 31.9879C49.9289 28.8125 41.3718 28.0211 34.2942 28.4479C33.6267 28.5996 32.9688 28.7721 32.3247 28.9739C15.9014 34.1108 12.7981 44.0771 12.7981 44.0771Z" fill="#FFC107"/>
</g>
</g>
<defs>
<linearGradient id="paint0_linear" x1="75.6923" y1="36.7726" x2="32.9305" y2="67.202" gradientUnits="userSpaceOnUse">
<stop stop-color="#02A4FF"/>
<stop offset="1" stop-color="#003F8A"/>
</linearGradient>
<linearGradient id="paint1_linear" x1="91.7714" y1="40.6937" x2="89.0781" y2="46.866" gradientUnits="userSpaceOnUse">
<stop stop-color="#00A3FF"/>
<stop offset="0.999659" stop-color="#541085"/>
<stop offset="1" stop-color="#003F8A"/>
</linearGradient>
<linearGradient id="paint2_linear" x1="32.4736" y1="72.3631" x2="69.8503" y2="47.3929" gradientUnits="userSpaceOnUse">
<stop stop-color="#FFC737"/>
<stop offset="0.999659" stop-color="#E974FC"/>
<stop offset="1" stop-color="#E974FC"/>
</linearGradient>
<linearGradient id="paint3_linear" x1="89.1658" y1="52.7368" x2="100.231" y2="55.0044" gradientUnits="userSpaceOnUse">
<stop offset="0.541667" stop-color="white"/>
<stop offset="0.999559" stop-color="white"/>
</linearGradient>
<linearGradient id="paint4_linear" x1="82.7826" y1="56.608" x2="86.7472" y2="50.2457" gradientUnits="userSpaceOnUse">
<stop stop-color="#02A4FF" stop-opacity="0.47"/>
<stop offset="0.999659" stop-color="#541085"/>
<stop offset="1" stop-color="#541085"/>
<stop offset="1" stop-color="#003F8A"/>
</linearGradient>
<linearGradient id="paint5_linear" x1="12.0587" y1="53.8178" x2="69.6912" y2="43.2878" gradientUnits="userSpaceOnUse">
<stop stop-color="#FFC737"/>
<stop offset="0.999659" stop-color="#E974FC"/>
<stop offset="1" stop-color="#E974FC"/>
</linearGradient>
<linearGradient id="paint6_linear" x1="54.9686" y1="53.6903" x2="42.8805" y2="72.3818" gradientUnits="userSpaceOnUse">
<stop stop-color="#F9532C"/>
<stop offset="0.999659" stop-color="#FF9948"/>
<stop offset="1" stop-color="#FF9948"/>
</linearGradient>
<linearGradient id="paint7_linear" x1="56.8511" y1="32.4253" x2="24.0493" y2="39.0908" gradientUnits="userSpaceOnUse">
<stop stop-color="#F9532C"/>
<stop offset="0.999659" stop-color="#FF9948"/>
<stop offset="1" stop-color="#FF9948"/>
</linearGradient>
</defs>
</svg>
