<svg width="60" height="23" viewBox="0 0 60 23" fill="none" xmlns="http://www.w3.org/2000/svg">
<path d="M32.016 9.648C32.24 9.256 32.568 8.936 33 8.688C33.432 8.44 33.924 8.316 34.476 8.316C35.068 8.316 35.6 8.456 36.072 8.736C36.544 9.016 36.916 9.412 37.188 9.924C37.46 10.428 37.596 11.016 37.596 11.688C37.596 12.352 37.46 12.944 37.188 13.464C36.916 13.984 36.54 14.388 36.06 14.676C35.588 14.964 35.06 15.108 34.476 15.108C33.908 15.108 33.408 14.984 32.976 14.736C32.552 14.488 32.232 14.172 32.016 13.788V15H30.924V6.12H32.016V9.648ZM36.48 11.688C36.48 11.192 36.38 10.76 36.18 10.392C35.98 10.024 35.708 9.744 35.364 9.552C35.028 9.36 34.656 9.264 34.248 9.264C33.848 9.264 33.476 9.364 33.132 9.564C32.796 9.756 32.524 10.04 32.316 10.416C32.116 10.784 32.016 11.212 32.016 11.7C32.016 12.196 32.116 12.632 32.316 13.008C32.524 13.376 32.796 13.66 33.132 13.86C33.476 14.052 33.848 14.148 34.248 14.148C34.656 14.148 35.028 14.052 35.364 13.86C35.708 13.66 35.98 13.376 36.18 13.008C36.38 12.632 36.48 12.192 36.48 11.688ZM38.6254 11.688C38.6254 11.016 38.7614 10.428 39.0334 9.924C39.3054 9.412 39.6774 9.016 40.1494 8.736C40.6294 8.456 41.1614 8.316 41.7454 8.316C42.3214 8.316 42.8214 8.44 43.2454 8.688C43.6694 8.936 43.9854 9.248 44.1934 9.624V8.424H45.2974V15H44.1934V13.776C43.9774 14.16 43.6534 14.48 43.2214 14.736C42.7974 14.984 42.3014 15.108 41.7334 15.108C41.1494 15.108 40.6214 14.964 40.1494 14.676C39.6774 14.388 39.3054 13.984 39.0334 13.464C38.7614 12.944 38.6254 12.352 38.6254 11.688ZM44.1934 11.7C44.1934 11.204 44.0934 10.772 43.8934 10.404C43.6934 10.036 43.4214 9.756 43.0774 9.564C42.7414 9.364 42.3694 9.264 41.9614 9.264C41.5534 9.264 41.1814 9.36 40.8454 9.552C40.5094 9.744 40.2414 10.024 40.0414 10.392C39.8414 10.76 39.7414 11.192 39.7414 11.688C39.7414 12.192 39.8414 12.632 40.0414 13.008C40.2414 13.376 40.5094 13.66 40.8454 13.86C41.1814 14.052 41.5534 14.148 41.9614 14.148C42.3694 14.148 42.7414 14.052 43.0774 13.86C43.4214 13.66 43.6934 13.376 43.8934 13.008C44.0934 12.632 44.1934 12.196 44.1934 11.7ZM46.7348 11.7C46.7348 11.02 46.8708 10.428 47.1428 9.924C47.4148 9.412 47.7908 9.016 48.2708 8.736C48.7588 8.456 49.3148 8.316 49.9388 8.316C50.7468 8.316 51.4108 8.512 51.9308 8.904C52.4588 9.296 52.8068 9.84 52.9748 10.536H51.7988C51.6868 10.136 51.4668 9.82 51.1388 9.588C50.8188 9.356 50.4188 9.24 49.9388 9.24C49.3148 9.24 48.8108 9.456 48.4268 9.888C48.0428 10.312 47.8508 10.916 47.8508 11.7C47.8508 12.492 48.0428 13.104 48.4268 13.536C48.8108 13.968 49.3148 14.184 49.9388 14.184C50.4188 14.184 50.8188 14.072 51.1388 13.848C51.4588 13.624 51.6788 13.304 51.7988 12.888H52.9748C52.7988 13.56 52.4468 14.1 51.9188 14.508C51.3908 14.908 50.7308 15.108 49.9388 15.108C49.3148 15.108 48.7588 14.968 48.2708 14.688C47.7908 14.408 47.4148 14.012 47.1428 13.5C46.8708 12.988 46.7348 12.388 46.7348 11.7ZM58.1038 15L55.5238 12.096V15H54.4318V6.12H55.5238V11.34L58.0558 8.424H59.5798L56.4838 11.7L59.5918 15H58.1038Z" fill="#7E7D7D"/>
<g clip-path="url(#clip0)">
<path d="M5.98481 13.2357H19.4643C19.7602 13.2357 20 12.9954 20 12.6991V10.195C20 9.89864 19.7602 9.65838 19.4643 9.65838H5.98481V7.59879C5.98481 6.64267 4.83075 6.16385 4.15575 6.83991L0.313828 10.6882C-0.104609 11.1073 -0.104609 11.7868 0.313828 12.2059L4.15575 16.0541C4.8307 16.7302 5.98481 16.2514 5.98481 15.2952V13.2357Z" fill="#C4C4C4"/>
</g>
<defs>
<clipPath id="clip0">
<rect width="20" height="22.8947" fill="white"/>
</clipPath>
</defs>
</svg>
