<svg width="25" height="25" viewBox="0 0 25 25" fill="none" xmlns="http://www.w3.org/2000/svg">
<path d="M24.4791 1.66356L15.3378 8.27221L13.8378 9.35915C13.0432 9.94621 11.9585 9.94621 11.1639 9.35915L9.66391 8.27221L0.511719 1.67441C1.02077 0.962521 1.84307 0.541207 2.71826 0.543959H22.2835C23.1522 0.544723 23.9683 0.96084 24.4791 1.66356Z" fill="#FFD54F"/>
<path d="M0.51091 1.67383L9.6631 8.27163L0.793535 17.1412C0.284229 16.6306 -0.00125004 15.9385 2.37323e-05 15.2173V3.2608C-0.00237097 2.69096 0.176518 2.13519 0.51091 1.67383Z" fill="#FFC107"/>
<path d="M24.9989 3.26091V15.2174C25.0002 15.9387 24.7148 16.6308 24.2055 17.1414L15.3359 8.27179L24.4772 1.66309C24.8166 2.12664 24.9993 2.68634 24.9989 3.26091Z" fill="#FFC107"/>
<path d="M16.3041 20.1088C15.5824 20.1088 15.2171 19.5653 15.2171 18.4784C15.2349 16.9597 14.0182 15.7142 12.4995 15.6964C10.9808 15.6786 9.73532 16.8953 9.71754 18.414C9.69976 19.9327 10.9165 21.1782 12.4352 21.196C13.2491 21.2055 14.0254 20.854 14.5552 20.236C14.9161 20.8544 15.5886 21.2235 16.3041 21.1958C18.478 21.1958 18.478 19.1501 18.478 18.4784C18.4781 15.1767 15.8015 12.5001 12.4999 12.5C9.1982 12.4999 6.52159 15.1765 6.52148 18.4782C6.52143 21.7799 9.19794 24.4565 12.4996 24.4566C14.0508 24.4566 15.5413 23.8537 16.6563 22.7752C16.8721 22.5651 16.8767 22.2198 16.6666 22.004C16.4565 21.7882 16.1112 21.7836 15.8954 21.9937C13.9511 23.869 10.8546 23.8131 8.97921 21.8687C7.10385 19.9244 7.1598 16.8279 9.10414 14.9525C11.0485 13.0772 14.145 13.1331 16.0203 15.0775C16.901 15.9905 17.3924 17.21 17.3911 18.4784C17.3911 19.6969 17.1172 20.1088 16.3041 20.1088ZM12.4998 20.1088C11.5993 20.1088 10.8693 19.3788 10.8693 18.4784C10.8693 17.5779 11.5993 16.848 12.4998 16.848C13.4002 16.848 14.1302 17.5779 14.1302 18.4784C14.1302 19.3788 13.4002 20.1088 12.4998 20.1088Z" fill="#455A64"/>
<path d="M15.3364 8.27148L13.8364 9.35842C13.0418 9.94548 11.9572 9.94548 11.1625 9.35842L9.66253 8.27148L0.792969 17.141C1.30355 17.6503 1.99567 17.9358 2.71688 17.9345H5.46141C5.75545 14.0478 9.14456 11.1353 13.0313 11.4294C16.5092 11.6925 19.2733 14.4566 19.5364 17.9345H22.2821C23.0033 17.9358 23.6954 17.6503 24.206 17.141L15.3364 8.27148Z" fill="#FFA000"/>
</svg>
