<svg width="25" height="25" viewBox="0 0 25 25" fill="none" xmlns="http://www.w3.org/2000/svg">
<g clip-path="url(#clip0)">
<path d="M13.3057 13.1104L10.6222 17.2586L8.06147 18.3544C6.55273 16.6259 4.94146 14.5752 4.17969 11.9824L5.71289 9.13086L8.17871 7.9834C8.13481 8.24707 8.10547 8.51074 8.10547 8.78906C8.10547 11.206 10.083 13.1836 12.5 13.1836C12.7783 13.1836 13.042 13.1542 13.3057 13.1104Z" fill="#FFDA2D"/>
<path d="M16.8228 9.59033C16.8667 9.32812 16.8955 9.06592 16.8955 8.78906C16.8955 6.37402 14.9209 4.39746 12.5063 4.39453H12.501C12.2227 4.39453 11.959 4.42383 11.6953 4.46777L15.5918 0.571289C17.9502 1.4502 19.8398 3.33984 20.7188 5.69824L16.8223 9.59473C16.8223 9.59326 16.8228 9.5918 16.8228 9.59033Z" fill="#80AEF8"/>
<path d="M20.7183 5.69824L19.3853 8.30078L16.8218 9.59473C16.8218 9.59326 16.8223 9.5918 16.8223 9.59033C16.8662 9.32812 16.895 9.06592 16.895 8.78906C16.895 6.37402 14.9204 4.39746 12.5059 4.39453H12.502V3.66064L13.3794 1.70898L15.5913 0.571289C17.9497 1.4502 19.8394 3.33984 20.7183 5.69824Z" fill="#4086F4"/>
<path d="M20.7169 5.69824L16.8204 9.59468C16.4834 11.3672 15.0772 12.7734 13.3047 13.1104H13.3047L9.06289 17.3521L8.06055 18.3544C8.30962 18.6327 8.5293 18.8818 8.76372 19.1455C10.3751 20.9766 11.7667 22.6562 11.7667 24.2676C11.7667 24.6777 12.0889 25 12.4991 25C12.9093 25 13.2315 24.6777 13.2315 24.2676C13.2315 22.6562 14.6231 20.9766 16.2345 19.1455C18.4904 16.6113 21.2882 13.4473 21.2882 8.78906C21.2882 7.70508 21.0978 6.66504 20.7169 5.69824Z" fill="#59C36A"/>
<path d="M20.7163 5.69824L16.8198 9.59463V9.59468C16.4829 11.3672 15.0767 12.7734 13.3042 13.1104C13.3041 13.1104 13.3041 13.1104 13.3041 13.1104L12.5 13.9144V24.9997C12.9095 24.9988 13.2309 24.6771 13.2309 24.2676C13.2309 22.6562 14.6225 20.9766 16.2338 19.1455C18.4897 16.6113 21.2875 13.4473 21.2875 8.78906C21.2875 7.70508 21.0971 6.66504 20.7163 5.69824Z" fill="#00A66C"/>
<path d="M12.502 13.9145L13.3061 13.1104C13.043 13.1542 12.7798 13.1832 12.502 13.1834V13.9145Z" fill="#FDBF00"/>
<path d="M15.5908 0.571289L11.6943 4.46777C10.8008 4.64355 10.0097 5.06831 9.39453 5.68364L7.1289 4.73633L6.28906 2.57812C7.87114 0.981396 10.0684 0 12.5 0C13.584 0 14.624 0.19043 15.5908 0.571289Z" fill="#4086F4"/>
<path d="M12.502 3.66045L15.5913 0.571143C14.625 0.19043 13.5854 0.000195313 12.502 0V3.66045H12.502Z" fill="#4175DF"/>
<path d="M9.39453 5.68359C8.77935 6.29883 8.35444 7.0898 8.17871 7.9834L4.17969 11.9824C3.88672 11.001 3.71094 9.94629 3.71094 8.78906C3.71094 6.35737 4.69233 4.16011 6.28906 2.57812L9.39453 5.68359Z" fill="#F03800"/>
</g>
<defs>
<clipPath id="clip0">
<rect width="25" height="25" fill="white"/>
</clipPath>
</defs>
</svg>
