<svg width="147" height="65" viewBox="0 0 147 65" fill="none" xmlns="http://www.w3.org/2000/svg">
<path d="M53.336 33.7C53.3993 33.7 53.45 33.7253 53.488 33.776C53.5387 33.814 53.564 33.8647 53.564 33.928V35.79C53.564 35.8533 53.5387 35.9103 53.488 35.961C53.45 35.999 53.3993 36.018 53.336 36.018H49.935C49.8717 36.018 49.84 36.0497 49.84 36.113V46.772C49.84 46.8353 49.8147 46.8923 49.764 46.943C49.726 46.981 49.6753 47 49.612 47H47.389C47.3257 47 47.2687 46.981 47.218 46.943C47.18 46.8923 47.161 46.8353 47.161 46.772V36.113C47.161 36.0497 47.1293 36.018 47.066 36.018H43.76C43.6967 36.018 43.6397 35.999 43.589 35.961C43.551 35.9103 43.532 35.8533 43.532 35.79V33.928C43.532 33.8647 43.551 33.814 43.589 33.776C43.6397 33.7253 43.6967 33.7 43.76 33.7H53.336ZM62.5693 47C62.4426 47 62.3539 46.943 62.3033 46.829L59.9283 41.566C59.9029 41.5153 59.8649 41.49 59.8143 41.49H58.0473C57.9839 41.49 57.9523 41.5217 57.9523 41.585V46.772C57.9523 46.8353 57.9269 46.8923 57.8763 46.943C57.8383 46.981 57.7876 47 57.7243 47H55.5013C55.4379 47 55.3809 46.981 55.3303 46.943C55.2923 46.8923 55.2733 46.8353 55.2733 46.772V33.928C55.2733 33.8647 55.2923 33.814 55.3303 33.776C55.3809 33.7253 55.4379 33.7 55.5013 33.7H60.9353C61.7459 33.7 62.4553 33.8647 63.0633 34.194C63.6839 34.5233 64.1589 34.992 64.4883 35.6C64.8303 36.208 65.0013 36.911 65.0013 37.709C65.0013 38.5703 64.7859 39.3113 64.3553 39.932C63.9246 40.54 63.3229 40.9707 62.5503 41.224C62.4869 41.2493 62.4679 41.2937 62.4933 41.357L65.0773 46.734C65.1026 46.7847 65.1153 46.8227 65.1153 46.848C65.1153 46.9493 65.0456 47 64.9063 47H62.5693ZM58.0473 35.999C57.9839 35.999 57.9523 36.0307 57.9523 36.094V39.343C57.9523 39.4063 57.9839 39.438 58.0473 39.438H60.5363C61.0683 39.438 61.4989 39.2797 61.8283 38.963C62.1703 38.6463 62.3413 38.2347 62.3413 37.728C62.3413 37.2213 62.1703 36.8097 61.8283 36.493C61.4989 36.1637 61.0683 35.999 60.5363 35.999H58.0473ZM75.6775 47C75.5508 47 75.4685 46.9367 75.4305 46.81L74.8605 44.948C74.8351 44.8973 74.8035 44.872 74.7655 44.872H70.0915C70.0535 44.872 70.0218 44.8973 69.9965 44.948L69.4455 46.81C69.4075 46.9367 69.3251 47 69.1985 47H66.7855C66.7095 47 66.6525 46.981 66.6145 46.943C66.5765 46.8923 66.5701 46.8227 66.5955 46.734L70.6995 33.89C70.7375 33.7633 70.8198 33.7 70.9465 33.7H73.9295C74.0561 33.7 74.1385 33.7633 74.1765 33.89L78.2805 46.734C78.2931 46.7593 78.2995 46.791 78.2995 46.829C78.2995 46.943 78.2298 47 78.0905 47H75.6775ZM70.6805 42.687C70.6678 42.763 70.6931 42.801 70.7565 42.801H74.1005C74.1765 42.801 74.2018 42.763 74.1765 42.687L72.4665 37.044C72.4538 36.9933 72.4348 36.9743 72.4095 36.987C72.3841 36.987 72.3651 37.006 72.3525 37.044L70.6805 42.687ZM83.151 47C83.0243 47 82.942 46.9367 82.904 46.81L78.99 33.966L78.971 33.89C78.971 33.7633 79.0407 33.7 79.18 33.7H81.574C81.7133 33.7 81.802 33.7633 81.84 33.89L84.367 43.162C84.3797 43.2 84.3987 43.219 84.424 43.219C84.4493 43.219 84.4683 43.2 84.481 43.162L86.97 33.89C87.008 33.7633 87.0967 33.7 87.236 33.7H89.573C89.649 33.7 89.706 33.7253 89.744 33.776C89.782 33.8267 89.7883 33.89 89.763 33.966L85.792 46.81C85.754 46.9367 85.6717 47 85.545 47H83.151ZM100.559 35.771C100.559 35.8343 100.534 35.8913 100.483 35.942C100.445 35.98 100.394 35.999 100.331 35.999H94.099C94.0357 35.999 94.004 36.0307 94.004 36.094V39.039C94.004 39.1023 94.0357 39.134 94.099 39.134H98.184C98.2473 39.134 98.298 39.1593 98.336 39.21C98.3867 39.248 98.412 39.2987 98.412 39.362V41.205C98.412 41.2683 98.3867 41.3253 98.336 41.376C98.298 41.414 98.2473 41.433 98.184 41.433H94.099C94.0357 41.433 94.004 41.4647 94.004 41.528V44.606C94.004 44.6693 94.0357 44.701 94.099 44.701H100.331C100.394 44.701 100.445 44.7263 100.483 44.777C100.534 44.815 100.559 44.8657 100.559 44.929V46.772C100.559 46.8353 100.534 46.8923 100.483 46.943C100.445 46.981 100.394 47 100.331 47H91.553C91.4897 47 91.4327 46.981 91.382 46.943C91.344 46.8923 91.325 46.8353 91.325 46.772V33.928C91.325 33.8647 91.344 33.814 91.382 33.776C91.4327 33.7253 91.4897 33.7 91.553 33.7H100.331C100.394 33.7 100.445 33.7253 100.483 33.776C100.534 33.814 100.559 33.8647 100.559 33.928V35.771ZM102.649 47C102.585 47 102.528 46.981 102.478 46.943C102.44 46.8923 102.421 46.8353 102.421 46.772V33.928C102.421 33.8647 102.44 33.814 102.478 33.776C102.528 33.7253 102.585 33.7 102.649 33.7H104.872C104.935 33.7 104.986 33.7253 105.024 33.776C105.074 33.814 105.1 33.8647 105.1 33.928V44.606C105.1 44.6693 105.131 44.701 105.195 44.701H111.408C111.471 44.701 111.522 44.7263 111.56 44.777C111.61 44.815 111.636 44.8657 111.636 44.929V46.772C111.636 46.8353 111.61 46.8923 111.56 46.943C111.522 46.981 111.471 47 111.408 47H102.649ZM114.605 47.076C114.174 47.076 113.813 46.9367 113.522 46.658C113.243 46.3667 113.104 46.0057 113.104 45.575C113.104 45.1317 113.243 44.7707 113.522 44.492C113.8 44.2133 114.161 44.074 114.605 44.074C115.048 44.074 115.409 44.2133 115.688 44.492C115.966 44.7707 116.106 45.1317 116.106 45.575C116.106 46.0057 115.96 46.3667 115.669 46.658C115.39 46.9367 115.035 47.076 114.605 47.076ZM123.089 47.152C122.114 47.152 121.252 46.9557 120.505 46.563C119.758 46.1703 119.175 45.6257 118.757 44.929C118.352 44.2197 118.149 43.4027 118.149 42.478V38.222C118.149 37.2973 118.352 36.4803 118.757 35.771C119.175 35.0617 119.758 34.517 120.505 34.137C121.252 33.7443 122.114 33.548 123.089 33.548C124.052 33.548 124.9 33.738 125.635 34.118C126.382 34.498 126.959 35.0173 127.364 35.676C127.782 36.322 127.991 37.044 127.991 37.842V37.975C127.991 38.0383 127.966 38.0953 127.915 38.146C127.877 38.184 127.826 38.203 127.763 38.203H125.54C125.477 38.203 125.42 38.184 125.369 38.146C125.331 38.0953 125.312 38.0383 125.312 37.975V37.918C125.312 37.3353 125.109 36.8477 124.704 36.455C124.299 36.0497 123.76 35.847 123.089 35.847C122.405 35.847 121.854 36.0623 121.436 36.493C121.031 36.911 120.828 37.462 120.828 38.146V42.554C120.828 43.238 121.05 43.7953 121.493 44.226C121.936 44.644 122.5 44.853 123.184 44.853C123.843 44.853 124.368 44.682 124.761 44.34C125.154 43.9853 125.35 43.4977 125.35 42.877V42.022C125.35 41.9587 125.318 41.927 125.255 41.927H123.127C123.064 41.927 123.007 41.908 122.956 41.87C122.918 41.8193 122.899 41.7623 122.899 41.699V39.951C122.899 39.8877 122.918 39.837 122.956 39.799C123.007 39.7483 123.064 39.723 123.127 39.723H127.763C127.826 39.723 127.877 39.7483 127.915 39.799C127.966 39.837 127.991 39.8877 127.991 39.951V42.459C127.991 43.4217 127.788 44.2577 127.383 44.967C126.978 45.6763 126.401 46.221 125.654 46.601C124.919 46.9683 124.064 47.152 123.089 47.152ZM134.78 47.209C133.792 47.209 132.918 47.0063 132.158 46.601C131.41 46.1957 130.828 45.632 130.41 44.91C129.992 44.1753 129.783 43.333 129.783 42.383V38.317C129.783 37.3797 129.992 36.55 130.41 35.828C130.828 35.106 131.41 34.5487 132.158 34.156C132.918 33.7507 133.792 33.548 134.78 33.548C135.78 33.548 136.654 33.7507 137.402 34.156C138.162 34.5487 138.751 35.106 139.169 35.828C139.587 36.55 139.796 37.3797 139.796 38.317V42.383C139.796 43.333 139.587 44.1753 139.169 44.91C138.751 45.6447 138.162 46.2147 137.402 46.62C136.654 47.0127 135.78 47.209 134.78 47.209ZM134.78 44.91C135.476 44.91 136.04 44.6883 136.471 44.245C136.901 43.8017 137.117 43.2127 137.117 42.478V38.298C137.117 37.5633 136.901 36.9743 136.471 36.531C136.053 36.075 135.489 35.847 134.78 35.847C134.083 35.847 133.519 36.075 133.089 36.531C132.671 36.9743 132.462 37.5633 132.462 38.298V42.478C132.462 43.2127 132.671 43.8017 133.089 44.245C133.519 44.6883 134.083 44.91 134.78 44.91Z" fill="#FF9948"/>
<path d="M54.8602 -2.96459e-07L53.6241 0.0143501L53.7493 11.1635L52.494 11.139C44.1183 11.6614 31.9444 12.5539 16.4306 22.7804C-5.056 36.9423 0.858993 55.725 10.3952 61.9052C10.3952 61.9052 0.482526 52.0311 7.36773 37.8499C13.471 25.2866 33.0262 15.6248 50.0218 13.0658C50.027 13.0658 50.0368 13.0609 50.0463 13.0609C50.1764 13.0465 50.2922 13.1382 50.3069 13.2687C50.3213 13.3894 50.239 13.5003 50.1236 13.5245C50.1187 13.5245 50.1092 13.529 50.0994 13.529C44.4598 14.8232 39.0325 16.9284 33.9338 19.5745C39.1532 17.1653 44.6431 15.3302 50.2635 14.3162C50.2684 14.3117 50.273 14.3117 50.2779 14.3117H50.2922C50.4325 14.2875 50.5627 14.3743 50.5917 14.5146C50.6208 14.6496 50.534 14.7847 50.4035 14.8183C50.3989 14.8232 50.3937 14.8232 50.3891 14.8232H50.3842C42.4991 16.7979 28.2459 22.6114 19.2068 38.2222C5.68763 61.5673 26.0875 71.3449 37.4343 60.7223C37.4343 60.7223 24.2769 60.7223 25.2425 47.8063C26.1214 36.0589 37.492 19.8159 53.8029 15.9771L53.9232 26.4936L55.1597 26.4838C56.0865 26.4695 56.9077 25.8803 57.2114 25.0067L60.292 16.1657L63.8167 16.441C66.9022 16.6873 69.7943 15.3448 69.7943 13.4086C69.7943 11.6222 67.3368 10.3423 64.5364 10.3423C64.2998 10.3423 64.0584 10.3521 63.8167 10.3714L60.3886 10.6418L56.9458 1.42925C56.6204 0.567156 55.8007 -0.000350172 54.8829 -2.96459e-07C54.8752 -2.96459e-07 54.8675 -2.96459e-07 54.8602 -2.96459e-07Z" fill="url(#paint0_linear)"/>
<path d="M54.8611 0.00106646L53.625 0.0154168L53.7503 11.1646C53.7503 11.1646 56.7893 10.7779 60.3895 10.6429L56.9467 1.43032C56.6213 0.568222 55.8016 0.00106646 54.8838 0.00106646C54.8762 0.00106646 54.8685 0.00106646 54.8611 0.00106646" fill="url(#paint1_linear)"/>
<path d="M21.7958 42.3621C17.9266 51.6289 20.6563 59.6362 29.6572 64.7461C32.3838 64.2283 35.1012 62.9082 37.4353 60.7229C37.4353 60.7229 24.2778 60.7229 25.2435 47.8069C26.1224 36.0594 37.493 19.8165 53.8038 15.9776C53.8038 15.9776 31.7743 18.4642 21.7958 42.3621" fill="url(#paint2_linear)"/>
<path d="M53.8027 15.9776C53.9427 15.9731 54.0732 15.9776 54.1984 15.9923C54.218 15.9923 54.2418 15.9972 54.266 15.9972C55.4059 16.0406 58.3994 16.147 60.2919 16.1662L63.8165 16.4416C66.9021 16.6879 69.7941 15.3454 69.7941 13.4092C69.7941 12.2455 68.7466 11.2995 67.245 10.7774C69.7413 14.7611 57.5447 15.7702 53.8027 15.9776" fill="url(#paint3_linear)"/>
<path d="M53.9231 26.4941L55.1595 26.4843C56.0864 26.47 56.9075 25.8808 57.2112 25.0072L60.2919 16.1662C57.9148 16.1403 53.8027 15.9776 53.8027 15.9776L53.9231 26.4941Z" fill="url(#paint4_linear)"/>
<path d="M50.044 13.0617C50.0472 13.0614 50.0489 13.0614 50.0489 13.0614C50.0472 13.0614 50.0454 13.0617 50.044 13.0617ZM17.4594 24.5097C4.87544 34.3559 3.87969 41.5297 4.06057 50.1003C4.15119 54.3922 7.19301 58.6229 10.2075 61.7781C10.2712 61.8204 10.3342 61.8645 10.3979 61.9058C10.3979 61.9058 0.485195 52.0316 7.3704 37.8504C13.4736 25.2871 33.0289 15.6253 50.0244 13.0663C50.0286 13.0663 50.0363 13.0631 50.044 13.0617C49.6903 13.0908 29.93 14.752 17.4594 24.5097" fill="url(#paint5_linear)"/>
<path d="M27.658 47.8071C27.4166 60.7231 39.0048 60.1195 42.5057 55.5327C42.5057 55.5327 32.502 55.0316 33.0902 43.5823C33.678 32.133 39.9306 25.5963 39.9306 25.5963C39.9306 25.5963 27.8994 34.8911 27.658 47.8071" fill="url(#paint6_linear)"/>
<path d="M7.61925 24.63C-2.03731 35.8561 0.23198 44.5474 0.23198 44.5474C0.23198 44.5474 -0.709534 19.1058 43.5914 10.34C43.5914 10.34 17.9217 12.6538 7.61925 24.63" fill="url(#paint7_linear)"/>
<g opacity="0.350006">
<g opacity="0.350006">
<path opacity="0.350006" d="M0.231969 44.5474C0.231969 44.5474 -0.488775 25.0208 29.1215 14.2873C20.4033 16.5003 13.7935 19.8168 8.81862 23.3495C8.40016 23.7641 7.99816 24.1895 7.61959 24.63C-2.03732 35.8561 0.231969 44.5474 0.231969 44.5474Z" fill="#FF9948"/>
</g>
</g>
<defs>
<linearGradient id="paint0_linear" x1="42.8413" y1="10.5891" x2="25.4589" y2="52.2746" gradientUnits="userSpaceOnUse">
<stop stop-color="#02A4FF"/>
<stop offset="1" stop-color="#003F8A"/>
</linearGradient>
<linearGradient id="paint1_linear" x1="56.3698" y1="6.13545" x2="57.2118" y2="11.8691" gradientUnits="userSpaceOnUse">
<stop stop-color="#00A3FF"/>
<stop offset="0.999659" stop-color="#541085"/>
<stop offset="1" stop-color="#003F8A"/>
</linearGradient>
<linearGradient id="paint2_linear" x1="27.4749" y1="56.2517" x2="43.4087" y2="21.0042" gradientUnits="userSpaceOnUse">
<stop stop-color="#FFC737"/>
<stop offset="0.999659" stop-color="#E974FC"/>
<stop offset="1" stop-color="#E974FC"/>
</linearGradient>
<linearGradient id="paint3_linear" x1="59.9478" y1="16.1165" x2="69.0614" y2="12.7367" gradientUnits="userSpaceOnUse">
<stop offset="0.541667" stop-color="white"/>
<stop offset="0.999559" stop-color="white"/>
</linearGradient>
<linearGradient id="paint4_linear" x1="57.0473" y1="21.8484" x2="57.0473" y2="15.3974" gradientUnits="userSpaceOnUse">
<stop stop-color="#02A4FF" stop-opacity="0.47"/>
<stop offset="0.999659" stop-color="#541085"/>
<stop offset="1" stop-color="#541085"/>
<stop offset="1" stop-color="#003F8A"/>
</linearGradient>
<linearGradient id="paint5_linear" x1="4.12519" y1="51.9982" x2="41.4248" y2="18.0785" gradientUnits="userSpaceOnUse">
<stop stop-color="#FFC737"/>
<stop offset="0.999659" stop-color="#E974FC"/>
<stop offset="1" stop-color="#E974FC"/>
</linearGradient>
<linearGradient id="paint6_linear" x1="35.4061" y1="32.3764" x2="35.0842" y2="51.5291" gradientUnits="userSpaceOnUse">
<stop stop-color="#F9532C"/>
<stop offset="0.999659" stop-color="#FF9948"/>
<stop offset="1" stop-color="#FF9948"/>
</linearGradient>
<linearGradient id="paint7_linear" x1="27.1032" y1="15.9886" x2="6.17998" y2="35.7851" gradientUnits="userSpaceOnUse">
<stop stop-color="#F9532C"/>
<stop offset="0.999659" stop-color="#FF9948"/>
<stop offset="1" stop-color="#FF9948"/>
</linearGradient>
</defs>
</svg>
