<svg width="77" height="75" viewBox="0 0 77 75" fill="none" xmlns="http://www.w3.org/2000/svg">
<path d="M66.0212 23.4582L65.1669 22.9395L60.4855 30.6435L59.6346 30.0899C53.6639 26.867 44.9285 22.2739 29.9102 22.6577C9.11068 23.188 5.13813 38.6058 9.03921 46.9243C9.03921 46.9243 6.45933 35.91 17.2477 29.1231C26.8077 23.1119 44.3578 24.8437 57.1143 30.355C57.1179 30.3572 57.1267 30.358 57.1332 30.3621C57.2286 30.4079 57.2689 30.5203 57.2232 30.6162C57.1814 30.7051 57.0776 30.7461 56.988 30.7133C56.9846 30.7112 56.9762 30.7102 56.9695 30.7061C52.5462 29.1826 47.9219 28.3065 43.2917 27.9421C47.9034 28.5207 52.4552 29.6089 56.7455 31.3164C56.7508 31.3154 56.7539 31.3173 56.7573 31.3194L56.7671 31.3256C56.8737 31.369 56.9259 31.4842 56.8859 31.5929C56.848 31.698 56.7308 31.7535 56.6268 31.7208C56.6216 31.7222 56.618 31.7199 56.6149 31.718L56.6115 31.7159C50.3564 29.6993 38.0901 27.5939 25.2125 34.4409C5.95341 44.6794 15.7708 60.1116 28.0991 57.6743C28.0991 57.6743 19.0706 52.0483 25.256 43.5983C30.8822 35.9131 45.6301 29.6292 58.464 33.9695L54.0498 41.2374L54.9024 41.7593C55.5445 42.1458 56.3599 42.0926 56.9419 41.623L62.8362 36.8736L65.137 38.5697C67.149 40.0581 69.7076 40.3735 70.5355 39.0449C71.2994 37.819 70.1603 35.89 68.2386 34.6925C68.0763 34.5914 67.9065 34.4949 67.7324 34.4047L65.2644 33.1245L66.8412 25.3307C66.9866 24.6 66.6667 23.8601 66.0368 23.4679C66.0316 23.4646 66.0263 23.4613 66.0212 23.4582Z" fill="url(#paint0_linear)"/>
<path d="M66.0211 23.4586L65.1667 22.9398L60.4854 30.6439C60.4854 30.6439 62.736 31.6781 65.2642 33.1248L66.8411 25.3311C66.9864 24.6004 66.6664 23.8607 66.0367 23.4683C66.0314 23.465 66.0261 23.4617 66.0211 23.4586" fill="url(#paint1_linear)"/>
<path d="M25.2182 38.3884C18.6007 43.0928 17.05 49.7546 21.0414 57.1097C23.1338 57.9203 25.5629 58.1764 28.099 57.6749C28.099 57.6749 19.0704 52.0488 25.2559 43.5988C30.8821 35.9136 45.63 29.6298 58.4638 33.97C58.4638 33.97 42.284 26.2566 25.2182 38.3884" fill="url(#paint2_linear)"/>
<path d="M58.4628 33.9693C58.5608 34.026 58.6484 34.0849 58.728 34.1486C58.7415 34.1569 58.7557 34.1705 58.7723 34.1808C59.5359 34.698 61.5446 36.051 62.835 36.8734L65.1358 38.5695C67.1478 40.0579 69.7064 40.3733 70.5343 39.0447C71.0319 38.2462 70.7176 37.1491 69.9104 36.1488C69.9199 39.9498 61.1192 35.4269 58.4628 33.9693" fill="url(#paint3_linear)"/>
<path d="M54.0494 41.2375L54.902 41.7595C55.5441 42.1459 56.3595 42.0928 56.9415 41.6231L62.8358 36.8737C61.2158 35.8396 58.4636 33.9696 58.4636 33.9696L54.0494 41.2375Z" fill="url(#paint4_linear)"/>
<path d="M57.1308 30.3613C57.1332 30.3624 57.1344 30.3631 57.1344 30.3631C57.1332 30.3624 57.1318 30.3619 57.1308 30.3613ZM29.8764 24.2838C17.0311 25.6594 13.2803 30.1562 9.73974 36.1147C7.96672 39.0985 8.24498 43.3023 8.96439 46.7563C8.98998 46.8126 9.01435 46.8698 9.04039 46.9253C9.04039 46.9253 6.46051 35.9111 17.2489 29.1241C26.8089 23.113 44.359 24.8448 57.1155 30.356C57.1183 30.3578 57.125 30.359 57.1308 30.3613C56.8757 30.23 42.606 22.9205 29.8764 24.2838" fill="url(#paint5_linear)"/>
<path d="M26.9127 44.6316C21.2243 53.3913 29.4341 57.9322 33.7977 56.2817C33.7977 56.2817 27.1475 51.6604 32.4467 44.0554C37.7458 36.4502 44.8314 34.6384 44.8314 34.6384C44.8314 34.6384 32.6012 35.8719 26.9127 44.6316" fill="url(#paint6_linear)"/>
<path d="M23.072 20.1586C11.6455 23.7328 9.48633 30.6671 9.48633 30.6671C9.48633 30.6671 19.7189 12.8066 53.8662 25.7344C53.8662 25.7344 35.2625 16.3459 23.072 20.1586" fill="url(#paint7_linear)"/>
<g opacity="0.350006">
<g opacity="0.350006">
<path opacity="0.350006" d="M9.48632 30.6671C9.48632 30.6671 17.3412 16.9598 42.2493 22.2558C35.3206 20.0465 29.3669 19.4959 24.4426 19.7928C23.9781 19.8983 23.5204 20.0184 23.0722 20.1588C11.6455 23.7328 9.48632 30.6671 9.48632 30.6671Z" fill="#FFC107"/>
</g>
</g>
<defs>
<linearGradient id="paint0_linear" x1="53.2461" y1="25.5852" x2="23.4939" y2="46.7569" gradientUnits="userSpaceOnUse">
<stop stop-color="#02A4FF"/>
<stop offset="1" stop-color="#003F8A"/>
</linearGradient>
<linearGradient id="paint1_linear" x1="64.4333" y1="28.3131" x2="62.5594" y2="32.6075" gradientUnits="userSpaceOnUse">
<stop stop-color="#00A3FF"/>
<stop offset="0.999659" stop-color="#541085"/>
<stop offset="1" stop-color="#003F8A"/>
</linearGradient>
<linearGradient id="paint2_linear" x1="23.1761" y1="50.3477" x2="49.1815" y2="32.9743" gradientUnits="userSpaceOnUse">
<stop stop-color="#FFC737"/>
<stop offset="0.999659" stop-color="#E974FC"/>
<stop offset="1" stop-color="#E974FC"/>
</linearGradient>
<linearGradient id="paint3_linear" x1="62.6201" y1="36.6922" x2="70.319" y2="38.2699" gradientUnits="userSpaceOnUse">
<stop offset="0.541667" stop-color="white"/>
<stop offset="0.999559" stop-color="white"/>
</linearGradient>
<linearGradient id="paint4_linear" x1="58.1797" y1="39.3855" x2="60.9381" y2="34.9589" gradientUnits="userSpaceOnUse">
<stop stop-color="#02A4FF" stop-opacity="0.47"/>
<stop offset="0.999659" stop-color="#541085"/>
<stop offset="1" stop-color="#541085"/>
<stop offset="1" stop-color="#003F8A"/>
</linearGradient>
<linearGradient id="paint5_linear" x1="8.97255" y1="37.4446" x2="49.0712" y2="30.1182" gradientUnits="userSpaceOnUse">
<stop stop-color="#FFC737"/>
<stop offset="0.999659" stop-color="#E974FC"/>
<stop offset="1" stop-color="#E974FC"/>
</linearGradient>
<linearGradient id="paint6_linear" x1="38.8275" y1="37.3562" x2="30.417" y2="50.3611" gradientUnits="userSpaceOnUse">
<stop stop-color="#F9532C"/>
<stop offset="0.999659" stop-color="#FF9948"/>
<stop offset="1" stop-color="#FF9948"/>
</linearGradient>
<linearGradient id="paint7_linear" x1="40.1368" y1="22.5601" x2="17.3145" y2="27.1978" gradientUnits="userSpaceOnUse">
<stop stop-color="#F9532C"/>
<stop offset="0.999659" stop-color="#FF9948"/>
<stop offset="1" stop-color="#FF9948"/>
</linearGradient>
</defs>
</svg>
