<svg width="25" height="25" viewBox="0 0 25 25" fill="none" xmlns="http://www.w3.org/2000/svg">
<g clip-path="url(#clip0)">
<path d="M23.0263 16.4605C21.5031 16.4635 19.9892 16.2227 18.5421 15.7474C17.8655 15.5108 17.1135 15.67 16.5908 16.1605L13.7513 18.3027C10.7019 16.7716 8.22768 14.2979 6.6961 11.2487L8.78161 8.47766C9.30815 7.95075 9.49645 7.17404 9.26979 6.4645C8.79265 5.01538 8.55056 3.49928 8.55266 1.97369C8.55266 0.883656 7.669 0 6.57897 0H1.97369C0.883656 0 0 0.883656 0 1.97369C0.0144943 14.6848 10.3152 24.9855 23.0263 25C24.1163 25 25 24.1163 25 23.0263V18.4342C25 17.3442 24.1163 16.4605 23.0263 16.4605Z" fill="#009688"/>
<path d="M24.3431 10.5263C23.9798 10.5263 23.6852 10.2318 23.6852 9.86843C23.6794 5.14731 19.8537 1.32157 15.1325 1.31577C14.7692 1.31577 14.4746 1.0212 14.4746 0.657854C14.4746 0.294511 14.7692 0 15.1325 0C20.5803 0.0057977 24.9952 4.42062 25.001 9.86843C25.001 10.2318 24.7065 10.5263 24.3431 10.5263Z" fill="#455A64"/>
<path d="M19.0799 10.5259C18.7165 10.5259 18.422 10.2313 18.422 9.86799C18.422 8.05127 16.9492 6.57853 15.1325 6.57853C14.7692 6.57853 14.4746 6.28396 14.4746 5.92061C14.4746 5.55727 14.7692 5.2627 15.1325 5.2627C17.676 5.2627 19.7378 7.32458 19.7378 9.86799C19.7378 10.2313 19.4432 10.5259 19.0799 10.5259Z" fill="#455A64"/>
</g>
<defs>
<clipPath id="clip0">
<rect width="25" height="25" fill="white"/>
</clipPath>
</defs>
</svg>
